<svg width="16" height="16" viewBox="0 0 16 16" fill="none" xmlns="http://www.w3.org/2000/svg">
<g id="code">
<path id="Vector" d="M10.8464 10.8465L10.4929 11.2L11.2 11.9071L11.5535 11.5536L10.8464 10.8465ZM14.4 8.00001L14.7535 8.35356L15.1071 8.00001L14.7535 7.64645L14.4 8.00001ZM11.5535 4.44645L11.2 4.0929L10.4929 4.80001L10.8464 5.15356L11.5535 4.44645ZM4.44642 11.5536L4.79998 11.9071L5.50708 11.2L5.15353 10.8465L4.44642 11.5536ZM1.59998 8.00001L1.24642 7.64645L0.892869 8.00001L1.24642 8.35356L1.59998 8.00001ZM5.15353 5.15356L5.50708 4.80001L4.79998 4.0929L4.44642 4.44645L5.15353 5.15356ZM11.2 11.2L11.5535 11.5536L14.7535 8.35356L14.4 8.00001L14.0464 7.64645L10.8464 10.8465L11.2 11.2ZM14.4 8.00001L14.7535 7.64645L11.5535 4.44645L11.2 4.80001L10.8464 5.15356L14.0464 8.35356L14.4 8.00001ZM4.79998 11.2L5.15353 10.8465L1.95353 7.64645L1.59998 8.00001L1.24642 8.35356L4.44642 11.5536L4.79998 11.2ZM1.59998 8.00001L1.95353 8.35356L5.15353 5.15356L4.79998 4.80001L4.44642 4.44645L1.24642 7.64645L1.59998 8.00001ZM9.06664 1.60001L8.57344 1.51781L6.44011 14.3178L6.93331 14.4L7.42651 14.4822L9.55984 1.68221L9.06664 1.60001Z" fill="#EBEBED"/>
</g>
</svg>
