<svg width="25" height="24" viewBox="0 0 25 24" fill="none" xmlns="http://www.w3.org/2000/svg">
<g clip-path="url(#clip0_617_542)">
<path d="M19.5 3.00024H12.972C12.8173 3.00127 12.6645 2.96707 12.525 2.90024L9.36899 1.31624C8.95238 1.10879 8.49339 1.00063 8.02799 1.00024H5.49999C4.1744 1.00183 2.90355 1.52913 1.96621 2.46646C1.02887 3.4038 0.50158 4.67465 0.499992 6.00024L0.499992 18.0002C0.50158 19.3258 1.02887 20.5967 1.96621 21.534C2.90355 22.4714 4.1744 22.9987 5.49999 23.0002H19.5C20.8256 22.9987 22.0964 22.4714 23.0338 21.534C23.9711 20.5967 24.4984 19.3258 24.5 18.0002V8.00024C24.4984 6.67465 23.9711 5.4038 23.0338 4.46646C22.0964 3.52913 20.8256 3.00183 19.5 3.00024ZM5.49999 3.00024H8.02799C8.18265 2.99922 8.33551 3.03342 8.47499 3.10024L11.631 4.67924C12.0472 4.88843 12.5062 4.99831 12.972 5.00024H19.5C20.098 5.00122 20.6821 5.18091 21.1773 5.51626C21.6725 5.8516 22.0561 6.32728 22.279 6.88224L2.49999 6.99424V6.00024C2.49999 5.20459 2.81606 4.44153 3.37867 3.87892C3.94128 3.31631 4.70434 3.00024 5.49999 3.00024ZM19.5 21.0002H5.49999C4.70434 21.0002 3.94128 20.6842 3.37867 20.1216C2.81606 19.559 2.49999 18.7959 2.49999 18.0002V8.99424L22.5 8.88124V18.0002C22.5 18.7959 22.1839 19.559 21.6213 20.1216C21.0587 20.6842 20.2956 21.0002 19.5 21.0002Z" fill="#A6A8AE"/>
</g>
<defs>
<clipPath id="clip0_617_542">
<rect width="24" height="24" fill="white" transform="translate(0.5)"/>
</clipPath>
</defs>
</svg>
