<svg width="16" height="16" viewBox="0 0 16 16" fill="none" xmlns="http://www.w3.org/2000/svg">
<g id="fi-rr-sign-out" clip-path="url(#clip0_462_4358)">
<g id="Vector">
<path d="M3.33333 14.6667H4.66667C4.84348 14.6667 5.01305 14.7369 5.13807 14.8619C5.2631 14.987 5.33333 15.1565 5.33333 15.3333C5.33333 15.5101 5.2631 15.6797 5.13807 15.8047C5.01305 15.9298 4.84348 16 4.66667 16H3.33333C2.4496 15.9989 1.60237 15.6474 0.97748 15.0225C0.352588 14.3976 0.00105857 13.5504 0 12.6667V3.33333C0.00105857 2.4496 0.352588 1.60237 0.97748 0.97748C1.60237 0.352588 2.4496 0.00105857 3.33333 0H4.66667C4.84348 0 5.01305 0.0702379 5.13807 0.195262C5.2631 0.320286 5.33333 0.489856 5.33333 0.666667C5.33333 0.843478 5.2631 1.01305 5.13807 1.13807C5.01305 1.2631 4.84348 1.33333 4.66667 1.33333H3.33333C2.8029 1.33333 2.29419 1.54405 1.91912 1.91912C1.54405 2.29419 1.33333 2.8029 1.33333 3.33333V12.6667C1.33333 13.1971 1.54405 13.7058 1.91912 14.0809C2.29419 14.456 2.8029 14.6667 3.33333 14.6667Z" fill="#6E6E7A"/>
<path d="M12.6332 3.5281L15.2192 6.1141H15.2166C15.7165 6.61418 15.9973 7.29233 15.9973 7.99944C15.9973 8.70654 15.7165 9.3847 15.2166 9.88477L12.6306 12.4708C12.5691 12.5344 12.4955 12.5852 12.4142 12.6202C12.3328 12.6551 12.2454 12.6735 12.1568 12.6743C12.0683 12.675 11.9805 12.6582 11.8986 12.6247C11.8167 12.5911 11.7422 12.5416 11.6796 12.479C11.617 12.4164 11.5675 12.342 11.534 12.2601C11.5005 12.1781 11.4836 12.0904 11.4844 12.0018C11.4852 11.9133 11.5036 11.8258 11.5385 11.7445C11.5734 11.6632 11.6242 11.5896 11.6879 11.5281L14.2739 8.9421C14.3625 8.8506 14.4374 8.74688 14.4966 8.6341C14.4883 8.63472 14.4806 8.63702 14.4728 8.63933C14.4638 8.64205 14.4547 8.64477 14.4446 8.64477L3.99257 8.6661C3.81576 8.6661 3.64619 8.59587 3.52117 8.47084C3.39615 8.34582 3.32591 8.17625 3.32591 7.99944C3.32591 7.82263 3.39615 7.65306 3.52117 7.52803C3.64619 7.40301 3.81576 7.33277 3.99257 7.33277L14.4486 7.31144C14.4536 7.31144 14.4581 7.31277 14.4626 7.3141C14.4671 7.31544 14.4716 7.31677 14.4766 7.31677C14.4206 7.22241 14.3534 7.13512 14.2766 7.05677L11.6906 4.47077C11.5691 4.34504 11.5019 4.17663 11.5035 4.00184C11.505 3.82704 11.5751 3.65983 11.6987 3.53623C11.8223 3.41262 11.9895 3.34251 12.1643 3.34099C12.3391 3.33947 12.5075 3.40667 12.6332 3.5281Z" fill="#6E6E7A"/>
</g>
</g>
<defs>
<clipPath id="clip0_462_4358">
<rect width="16" height="16" fill="white"/>
</clipPath>
</defs>
</svg>
