<svg width="12" height="12" viewBox="0 0 12 12" fill="none" xmlns="http://www.w3.org/2000/svg">
<g id="fi-rr-box" clip-path="url(#clip0_462_4346)">
<g id="Vector">
<path d="M7.50005 7.00001H4.50006C4.36745 7.00001 4.24028 6.94733 4.14651 6.85356C4.05274 6.75979 4.00006 6.63261 4.00006 6.5C4.00006 6.36739 4.05274 6.24022 4.14651 6.14645C4.24028 6.05268 4.36745 6 4.50006 6H7.50005C7.63266 6 7.75984 6.05268 7.85361 6.14645C7.94737 6.24022 8.00005 6.36739 8.00005 6.5C8.00005 6.63261 7.94737 6.75979 7.85361 6.85356C7.75984 6.94733 7.63266 7.00001 7.50005 7.00001Z" fill="#A6A8AE"/>
<path fill-rule="evenodd" clip-rule="evenodd" d="M2.5 0H9.5C10.1628 0.000793929 10.7982 0.264441 11.2669 0.73311C11.7356 1.20178 11.9992 1.8372 12 2.5V3C11.9999 3.21087 11.9552 3.41934 11.8691 3.61181C11.7829 3.80428 11.6572 3.97642 11.5 4.117V9.5C11.4992 10.1628 11.2356 10.7982 10.7669 11.2669C10.2982 11.7356 9.6628 11.9992 9 12H3C2.3372 11.9992 1.70178 11.7356 1.23311 11.2669C0.764441 10.7982 0.500794 10.1628 0.5 9.5V4.117C0.342826 3.97642 0.217059 3.80428 0.130905 3.61181C0.0447504 3.41934 0.000145404 3.21087 0 3V2.5C0.000793929 1.8372 0.264441 1.20178 0.73311 0.73311C1.20178 0.264441 1.8372 0.000793929 2.5 0ZM1.43934 1.43934C1.15804 1.72064 1 2.10218 1 2.5V3C1 3.13261 1.05268 3.25979 1.14645 3.35355C1.24021 3.44732 1.36739 3.5 1.5 3.5H10.5C10.6326 3.5 10.7598 3.44732 10.8536 3.35355C10.9473 3.25979 11 3.13261 11 3V2.5C11 2.10218 10.842 1.72064 10.5607 1.43934C10.2794 1.15804 9.89782 1 9.5 1H2.5C2.10218 1 1.72064 1.15804 1.43934 1.43934ZM10.0607 10.5607C10.342 10.2794 10.5 9.89782 10.5 9.5V4.5H1.5V9.5C1.5 9.89782 1.65804 10.2794 1.93934 10.5607C2.22064 10.842 2.60218 11 3 11H9C9.39782 11 9.77936 10.842 10.0607 10.5607Z" fill="#A6A8AE"/>
</g>
</g>
<defs>
<clipPath id="clip0_462_4346">
<rect width="12" height="12" fill="white"/>
</clipPath>
</defs>
</svg>
