<svg width="25" height="24" viewBox="0 0 25 24" fill="none" xmlns="http://www.w3.org/2000/svg">
<g clip-path="url(#clip0_617_796)">
<path d="M11.7927 6.29289C11.9803 6.10536 12.2346 6 12.4998 6C12.765 6 13.0194 6.10536 13.2069 6.29289C13.3945 6.48043 13.4998 6.73478 13.4998 7V11.879C13.5016 12.0502 13.4595 12.219 13.3773 12.3692C13.2952 12.5195 13.1759 12.6461 13.0308 12.737L9.19082 15.137C8.96539 15.2778 8.69324 15.3233 8.43426 15.2635C8.17527 15.2037 7.95065 15.0434 7.80982 14.818C7.66899 14.5926 7.62349 14.3204 7.68331 14.0614C7.74313 13.8024 7.90339 13.5778 8.12882 13.437L11.4998 11.325V7C11.4998 6.73478 11.6052 6.48043 11.7927 6.29289Z" fill="#A6A8AE"/>
<path fill-rule="evenodd" clip-rule="evenodd" d="M5.83316 2.02236C7.80655 0.703788 10.1266 0 12.5 0C15.6815 0.00344108 18.7318 1.26883 20.9815 3.51852C23.2312 5.76821 24.4966 8.81846 24.5 12C24.5 14.3734 23.7962 16.6935 22.4776 18.6668C21.1591 20.6402 19.2849 22.1783 17.0922 23.0866C14.8995 23.9948 12.4867 24.2324 10.1589 23.7694C7.83115 23.3064 5.69295 22.1635 4.01472 20.4853C2.33649 18.8071 1.1936 16.6689 0.730582 14.3411C0.267559 12.0133 0.505199 9.60051 1.41345 7.4078C2.3217 5.21509 3.85977 3.34094 5.83316 2.02236ZM6.9443 20.3147C8.58879 21.4135 10.5222 22 12.5 22C15.1513 21.9971 17.6931 20.9426 19.5679 19.0679C21.4426 17.1931 22.4971 14.6513 22.5 12C22.5 10.0222 21.9135 8.08879 20.8147 6.4443C19.7159 4.79981 18.1541 3.51808 16.3268 2.7612C14.4996 2.00433 12.4889 1.8063 10.5491 2.19215C8.60929 2.578 6.82746 3.53041 5.42894 4.92893C4.03041 6.32746 3.078 8.10929 2.69215 10.0491C2.3063 11.9889 2.50433 13.9996 3.26121 15.8268C4.01809 17.6541 5.29981 19.2159 6.9443 20.3147Z" fill="#A6A8AE"/>
</g>
<defs>
<clipPath id="clip0_617_796">
<rect width="24" height="24" fill="white" transform="translate(0.5)"/>
</clipPath>
</defs>
</svg>
