<svg width="12" height="12" viewBox="0 0 12 12" fill="none" xmlns="http://www.w3.org/2000/svg">
<g id="fi-rr-apps" clip-path="url(#clip0_462_4334)">
<g id="Vector">
<path fill-rule="evenodd" clip-rule="evenodd" d="M2 0H3.5C4.03043 0 4.53914 0.210714 4.91421 0.585786C5.28929 0.960859 5.5 1.46957 5.5 2V3.5C5.5 4.03043 5.28929 4.53914 4.91421 4.91421C4.53914 5.28929 4.03043 5.5 3.5 5.5H2C1.46957 5.5 0.960859 5.28929 0.585786 4.91421C0.210714 4.53914 0 4.03043 0 3.5V2C0 1.46957 0.210714 0.960859 0.585786 0.585786C0.960859 0.210714 1.46957 0 2 0ZM4.20711 4.20711C4.39464 4.01957 4.5 3.76522 4.5 3.5V2C4.5 1.73478 4.39464 1.48043 4.20711 1.29289C4.01957 1.10536 3.76522 1 3.5 1H2C1.73478 1 1.48043 1.10536 1.29289 1.29289C1.10536 1.48043 1 1.73478 1 2V3.5C1 3.76522 1.10536 4.01957 1.29289 4.20711C1.48043 4.39464 1.73478 4.5 2 4.5H3.5C3.76522 4.5 4.01957 4.39464 4.20711 4.20711Z" fill="#A6A8AE"/>
<path fill-rule="evenodd" clip-rule="evenodd" d="M8.49992 0H9.99992C10.5304 0 11.0391 0.210714 11.4141 0.585787C11.7892 0.96086 11.9999 1.46957 11.9999 2V3.5C11.9999 4.03044 11.7892 4.53914 11.4141 4.91422C11.0391 5.28929 10.5304 5.5 9.99992 5.5H8.49992C7.96949 5.5 7.46078 5.28929 7.08571 4.91422C6.71064 4.53914 6.49992 4.03044 6.49992 3.5V2C6.49992 1.46957 6.71064 0.96086 7.08571 0.585787C7.46078 0.210714 7.96949 0 8.49992 0ZM10.707 4.20711C10.8946 4.01957 10.9999 3.76522 10.9999 3.5V2C10.9999 1.73478 10.8946 1.48043 10.707 1.29289C10.5195 1.10536 10.2651 1 9.99992 1H8.49992C8.2347 1 7.98035 1.10536 7.79282 1.29289C7.60528 1.48043 7.49992 1.73478 7.49992 2V3.5C7.49992 3.76522 7.60528 4.01957 7.79282 4.20711C7.98035 4.39465 8.2347 4.5 8.49992 4.5H9.99992C10.2651 4.5 10.5195 4.39465 10.707 4.20711Z" fill="#A6A8AE"/>
<path fill-rule="evenodd" clip-rule="evenodd" d="M3.5 6.5H2C1.46957 6.5 0.960859 6.71071 0.585786 7.08579C0.210714 7.46086 0 7.96957 0 8.5V10C0 10.5304 0.210714 11.0391 0.585786 11.4142C0.960859 11.7893 1.46957 12 2 12H3.5C4.03043 12 4.53914 11.7893 4.91421 11.4142C5.28929 11.0391 5.5 10.5304 5.5 10V8.5C5.5 7.96957 5.28929 7.46086 4.91421 7.08579C4.53914 6.71071 4.03043 6.5 3.5 6.5ZM4.5 10C4.5 10.2652 4.39464 10.5196 4.20711 10.7071C4.01957 10.8946 3.76522 11 3.5 11H2C1.73478 11 1.48043 10.8946 1.29289 10.7071C1.10536 10.5196 1 10.2652 1 10V8.5C1 8.23479 1.10536 7.98043 1.29289 7.7929C1.48043 7.60536 1.73478 7.5 2 7.5H3.5C3.76522 7.5 4.01957 7.60536 4.20711 7.7929C4.39464 7.98043 4.5 8.23479 4.5 8.5V10Z" fill="#A6A8AE"/>
<path fill-rule="evenodd" clip-rule="evenodd" d="M8.49992 6.5H9.99992C10.5304 6.5 11.0391 6.71071 11.4141 7.08579C11.7892 7.46086 11.9999 7.96957 11.9999 8.5V10C11.9999 10.5304 11.7892 11.0391 11.4141 11.4142C11.0391 11.7893 10.5304 12 9.99992 12H8.49992C7.96949 12 7.46078 11.7893 7.08571 11.4142C6.71064 11.0391 6.49992 10.5304 6.49992 10V8.5C6.49992 7.96957 6.71064 7.46086 7.08571 7.08579C7.46078 6.71071 7.96949 6.5 8.49992 6.5ZM10.707 10.7071C10.8946 10.5196 10.9999 10.2652 10.9999 10V8.5C10.9999 8.23479 10.8946 7.98043 10.707 7.7929C10.5195 7.60536 10.2651 7.5 9.99992 7.5H8.49992C8.2347 7.5 7.98035 7.60536 7.79282 7.7929C7.60528 7.98043 7.49992 8.23479 7.49992 8.5V10C7.49992 10.2652 7.60528 10.5196 7.79282 10.7071C7.98035 10.8946 8.2347 11 8.49992 11H9.99992C10.2651 11 10.5195 10.8946 10.707 10.7071Z" fill="#A6A8AE"/>
</g>
</g>
<defs>
<clipPath id="clip0_462_4334">
<rect width="12" height="12" fill="white"/>
</clipPath>
</defs>
</svg>
