<svg width="12" height="12" viewBox="0 0 12 12" fill="none" xmlns="http://www.w3.org/2000/svg">
<g id="fi-rr-settings" clip-path="url(#clip0_462_4342)">
<g id="Vector">
<path fill-rule="evenodd" clip-rule="evenodd" d="M4.88891 4.33737C5.2178 4.1176 5.60448 4.00031 6.00005 4.00031C6.53048 4.00031 7.03919 4.21102 7.41426 4.58609C7.78933 4.96116 8.00005 5.46987 8.00005 6.00031C8.00005 6.39587 7.88275 6.78255 7.66299 7.11145C7.44322 7.44034 7.13087 7.69669 6.76541 7.84806C6.39996 7.99944 5.99783 8.03905 5.60987 7.96188C5.2219 7.88471 4.86554 7.69422 4.58583 7.41452C4.30613 7.13481 4.11565 6.77845 4.03848 6.39049C3.96131 6.00252 4.00091 5.60039 4.15229 5.23494C4.30366 4.86949 4.56001 4.55713 4.88891 4.33737ZM5.44448 6.83177C5.60893 6.94166 5.80227 7.00031 6.00005 7.00031C6.26526 7.00031 6.51962 6.89495 6.70715 6.70741C6.89469 6.51988 7.00005 6.26552 7.00005 6.00031C7.00005 5.80252 6.9414 5.60918 6.83152 5.44474C6.72163 5.28029 6.56546 5.15211 6.38273 5.07643C6.2 5.00074 5.99894 4.98093 5.80496 5.01952C5.61098 5.0581 5.43279 5.15335 5.29294 5.2932C5.15309 5.43305 5.05785 5.61123 5.01926 5.80521C4.98068 5.9992 5.00048 6.20026 5.07617 6.38299C5.15185 6.56571 5.28003 6.72189 5.44448 6.83177Z" fill="#A6A8AE"/>
<path fill-rule="evenodd" clip-rule="evenodd" d="M10.425 6.822L10.647 6.95L10.6475 6.9495C10.9923 7.14841 11.2439 7.47614 11.3471 7.86059C11.4502 8.24504 11.3964 8.65472 11.1975 8.9995C10.9986 9.34428 10.6709 9.59592 10.2864 9.69907C9.90198 9.80221 9.4923 9.74841 9.14752 9.5495L8.92402 9.4205C8.5041 9.7802 8.02133 10.0592 7.50002 10.2435V10.5C7.50002 10.8978 7.34199 11.2794 7.06068 11.5607C6.77938 11.842 6.39785 12 6.00002 12C5.6022 12 5.22067 11.842 4.93936 11.5607C4.65806 11.2794 4.50002 10.8978 4.50002 10.5V10.2435C3.97851 10.0599 3.4954 9.78159 3.07502 9.4225L2.85252 9.551C2.50774 9.74991 2.09806 9.80371 1.71361 9.70057C1.32916 9.59742 1.00143 9.34578 0.802521 9.001C0.603609 8.65622 0.549808 8.24654 0.652953 7.86209C0.756098 7.47764 1.00774 7.14991 1.35252 6.951L1.57452 6.823C1.47458 6.27922 1.47458 5.72178 1.57452 5.178L1.35252 5.05C1.00774 4.85109 0.756098 4.52336 0.652953 4.13891C0.549808 3.75446 0.603609 3.34478 0.802521 3C1.00143 2.65522 1.32916 2.40358 1.71361 2.30043C2.09806 2.19729 2.50774 2.25109 2.85252 2.45L3.07602 2.5795C3.49595 2.2198 3.97872 1.94078 4.50002 1.7565V1.5C4.50002 1.10218 4.65806 0.720644 4.93936 0.43934C5.22067 0.158035 5.6022 0 6.00002 0C6.39785 0 6.77938 0.158035 7.06068 0.43934C7.34199 0.720644 7.50002 1.10218 7.50002 1.5V1.7565C8.02135 1.94012 8.50429 2.21846 8.92452 2.5775L9.14702 2.449C9.31774 2.35051 9.50619 2.28661 9.7016 2.26094C9.89702 2.23528 10.0956 2.24836 10.2859 2.29943C10.4763 2.3505 10.6547 2.43857 10.8111 2.5586C10.9674 2.67863 11.0985 2.82828 11.197 2.999C11.2955 3.16972 11.3594 3.35816 11.3851 3.55358C11.4107 3.74899 11.3977 3.94755 11.3466 4.13791C11.2955 4.32827 11.2075 4.50671 11.0874 4.66303C10.9674 4.81936 10.8177 4.95051 10.647 5.049L10.425 5.177C10.525 5.72078 10.525 6.27822 10.425 6.822ZM9.37302 6.937C9.54234 6.32347 9.54234 5.67553 9.37302 5.062V5.0625C9.3439 4.95605 9.35082 4.84296 9.39269 4.74085C9.43457 4.63874 9.50905 4.55335 9.60452 4.498L10.1465 4.185C10.2038 4.15241 10.2542 4.1088 10.2946 4.05669C10.335 4.00457 10.3646 3.94498 10.3819 3.88135C10.3992 3.81771 10.4037 3.75128 10.3952 3.68589C10.3867 3.6205 10.3654 3.55744 10.3324 3.50034C10.2994 3.44323 10.2555 3.39321 10.2031 3.35316C10.1507 3.3131 10.0909 3.2838 10.0272 3.26695C9.96345 3.2501 9.89699 3.24602 9.83166 3.25495C9.76633 3.26388 9.70341 3.28565 9.64652 3.319L9.10452 3.6325C9.00847 3.68813 8.89664 3.71022 8.78664 3.69528C8.67665 3.68035 8.57476 3.62923 8.49702 3.55C8.05222 3.09494 7.49153 2.77008 6.87552 2.6105C6.76804 2.58287 6.6728 2.52026 6.60482 2.43254C6.53683 2.34482 6.49997 2.23698 6.50002 2.126V1.5C6.50002 1.36739 6.44734 1.24021 6.35357 1.14645C6.25981 1.05268 6.13263 1 6.00002 1C5.86741 1 5.74024 1.05268 5.64647 1.14645C5.5527 1.24021 5.50002 1.36739 5.50002 1.5V2.126C5.50052 2.23732 5.46386 2.34563 5.39584 2.43375C5.32782 2.52188 5.23234 2.58478 5.12452 2.6125C4.50873 2.77151 3.94807 3.09567 3.50302 3.55C3.42508 3.6288 3.32316 3.67946 3.21329 3.69403C3.10341 3.70861 2.99181 3.68626 2.89602 3.6305L2.35302 3.3165C2.23812 3.2502 2.10158 3.23225 1.97344 3.26662C1.84531 3.30099 1.73608 3.38484 1.66977 3.49975C1.60347 3.61466 1.58552 3.75119 1.61989 3.87933C1.65426 4.00746 1.73812 4.1167 1.85302 4.183L2.39502 4.496C2.49068 4.5512 2.56537 4.63652 2.60743 4.73865C2.64949 4.84077 2.65655 4.95394 2.62752 5.0605C2.4582 5.67403 2.4582 6.32197 2.62752 6.9355C2.65709 7.04229 2.65034 7.15587 2.60835 7.2584C2.56636 7.36094 2.4915 7.44663 2.39552 7.502L1.85352 7.815C1.7962 7.84759 1.74589 7.8912 1.70549 7.94331C1.66509 7.99543 1.63539 8.05502 1.61812 8.11865C1.60084 8.18229 1.59632 8.24872 1.60482 8.31411C1.61332 8.3795 1.63467 8.44256 1.66764 8.49966C1.70061 8.55677 1.74455 8.60679 1.79693 8.64684C1.84931 8.6869 1.9091 8.7162 1.97285 8.73305C2.0366 8.7499 2.10305 8.75398 2.16838 8.74505C2.23372 8.73612 2.29664 8.71435 2.35352 8.681L2.89552 8.3675C2.99157 8.31187 3.10341 8.28978 3.2134 8.30472C3.32339 8.31965 3.42528 8.37077 3.50302 8.45C3.94769 8.90498 4.5082 9.22984 5.12402 9.3895C5.2315 9.41713 5.32674 9.47974 5.39472 9.56746C5.46271 9.65518 5.49958 9.76302 5.49952 9.874V10.5C5.49952 10.6326 5.5522 10.7598 5.64597 10.8536C5.73974 10.9473 5.86691 11 5.99952 11C6.13213 11 6.25931 10.9473 6.35308 10.8536C6.44684 10.7598 6.49952 10.6326 6.49952 10.5V9.8735C6.49947 9.76252 6.53633 9.65468 6.60432 9.56696C6.6723 9.47924 6.76754 9.41663 6.87502 9.389C7.49081 9.22999 8.05148 8.90583 8.49652 8.4515C8.57426 8.37227 8.67615 8.32115 8.78614 8.30622C8.89614 8.29128 9.00797 8.31337 9.10402 8.369L9.64702 8.683C9.76193 8.7493 9.89847 8.76725 10.0266 8.73288C10.1547 8.69851 10.264 8.61466 10.3303 8.49975C10.3966 8.38484 10.4145 8.24831 10.3802 8.12017C10.3458 7.99204 10.2619 7.8828 10.147 7.8165L9.60502 7.5035C9.50905 7.44813 9.43418 7.36244 9.39219 7.2599C9.3502 7.15737 9.34346 7.04379 9.37302 6.937Z" fill="#A6A8AE"/>
</g>
</g>
<defs>
<clipPath id="clip0_462_4342">
<rect width="12" height="12" fill="white"/>
</clipPath>
</defs>
</svg>
