<svg width="25" height="24" viewBox="0 0 25 24" fill="none" xmlns="http://www.w3.org/2000/svg">
<g clip-path="url(#clip0_617_829)">
<path fill-rule="evenodd" clip-rule="evenodd" d="M1.5 4.75026H4.236C4.45064 5.53999 4.91917 6.23715 5.56933 6.73419C6.21948 7.23123 7.01512 7.50052 7.8335 7.50052C8.65188 7.50052 9.44752 7.23123 10.0977 6.73419C10.7478 6.23715 11.2164 5.53999 11.431 4.75026H23.5C23.7652 4.75026 24.0196 4.6449 24.2071 4.45737C24.3946 4.26983 24.5 4.01548 24.5 3.75026C24.5 3.48504 24.3946 3.23069 24.2071 3.04315C24.0196 2.85562 23.7652 2.75026 23.5 2.75026H11.431C11.2164 1.96053 10.7478 1.26336 10.0977 0.766328C9.44752 0.269291 8.65188 0 7.8335 0C7.01512 0 6.21948 0.269291 5.56933 0.766328C4.91917 1.26336 4.45064 1.96053 4.236 2.75026H1.5C1.23478 2.75026 0.98043 2.85562 0.792893 3.04315C0.605357 3.23069 0.5 3.48504 0.5 3.75026C0.5 4.01548 0.605357 4.26983 0.792893 4.45737C0.98043 4.6449 1.23478 4.75026 1.5 4.75026ZM7.833 2.00026C8.17912 2.00026 8.51746 2.10289 8.80525 2.29519C9.09303 2.48748 9.31734 2.76079 9.44979 3.08056C9.58224 3.40033 9.6169 3.7522 9.54937 4.09167C9.48185 4.43113 9.31518 4.74295 9.07044 4.9877C8.8257 5.23244 8.51388 5.39911 8.17441 5.46663C7.83494 5.53416 7.48307 5.4995 7.1633 5.36705C6.84353 5.23459 6.57022 5.01029 6.37793 4.72251C6.18564 4.43472 6.083 4.09638 6.083 3.75026C6.08353 3.28629 6.26807 2.84148 6.59615 2.51341C6.92422 2.18533 7.36903 2.00079 7.833 2.00026Z" fill="#A6A8AE"/>
<path fill-rule="evenodd" clip-rule="evenodd" d="M23.5 10.999H20.764C20.5497 10.2091 20.0814 9.5117 19.4313 9.01446C18.7812 8.51722 17.9855 8.2478 17.167 8.2478C16.3485 8.2478 15.5528 8.51722 14.9027 9.01446C14.2526 9.5117 13.7843 10.2091 13.57 10.999H1.5C1.23478 10.999 0.98043 11.1044 0.792893 11.2919C0.605357 11.4795 0.5 11.7338 0.5 11.999C0.5 12.2642 0.605357 12.5186 0.792893 12.7061C0.98043 12.8937 1.23478 12.999 1.5 12.999H13.57C13.7843 13.7889 14.2526 14.4864 14.9027 14.9836C15.5528 15.4808 16.3485 15.7503 17.167 15.7503C17.9855 15.7503 18.7812 15.4808 19.4313 14.9836C20.0814 14.4864 20.5497 13.7889 20.764 12.999H23.5C23.7652 12.999 24.0196 12.8937 24.2071 12.7061C24.3946 12.5186 24.5 12.2642 24.5 11.999C24.5 11.7338 24.3946 11.4795 24.2071 11.2919C24.0196 11.1044 23.7652 10.999 23.5 10.999ZM17.167 13.749C16.8209 13.749 16.4825 13.6464 16.1948 13.4541C15.907 13.2618 15.6827 12.9885 15.5502 12.6687C15.4178 12.349 15.3831 11.9971 15.4506 11.6576C15.5181 11.3182 15.6848 11.0063 15.9296 10.7616C16.1743 10.5169 16.4861 10.3502 16.8256 10.2827C17.1651 10.2151 17.5169 10.2498 17.8367 10.3822C18.1565 10.5147 18.4298 10.739 18.6221 11.0268C18.8144 11.3146 18.917 11.6529 18.917 11.999C18.9165 12.463 18.7319 12.9078 18.4039 13.2359C18.0758 13.564 17.631 13.7485 17.167 13.749Z" fill="#A6A8AE"/>
<path fill-rule="evenodd" clip-rule="evenodd" d="M11.431 19.2502H23.5C23.7652 19.2502 24.0196 19.3556 24.2071 19.5431C24.3946 19.7307 24.5 19.985 24.5 20.2502C24.5 20.5155 24.3946 20.7698 24.2071 20.9573C24.0196 21.1449 23.7652 21.2502 23.5 21.2502H11.431C11.2164 22.04 10.7478 22.7371 10.0977 23.2342C9.44752 23.7312 8.65188 24.0005 7.8335 24.0005C7.01512 24.0005 6.21948 23.7312 5.56933 23.2342C4.91917 22.7371 4.45064 22.04 4.236 21.2502H1.5C1.23478 21.2502 0.98043 21.1449 0.792893 20.9573C0.605357 20.7698 0.5 20.5155 0.5 20.2502C0.5 19.985 0.605357 19.7307 0.792893 19.5431C0.98043 19.3556 1.23478 19.2502 1.5 19.2502H4.236C4.45064 18.4605 4.91917 17.7634 5.56933 17.2663C6.21948 16.7693 7.01512 16.5 7.8335 16.5C8.65188 16.5 9.44752 16.7693 10.0977 17.2663C10.7478 17.7634 11.2164 18.4605 11.431 19.2502ZM6.86075 21.7053C7.14854 21.8976 7.48688 22.0002 7.833 22.0002C8.29689 21.9994 8.74154 21.8148 9.06956 21.4868C9.39758 21.1588 9.58221 20.7141 9.583 20.2502C9.583 19.9041 9.48036 19.5658 9.28807 19.278C9.09578 18.9902 8.82247 18.7659 8.5027 18.6335C8.18293 18.501 7.83106 18.4664 7.49159 18.5339C7.15213 18.6014 6.8403 18.7681 6.59556 19.0128C6.35082 19.2576 6.18415 19.5694 6.11663 19.9088C6.0491 20.2483 6.08376 20.6002 6.21621 20.9199C6.34866 21.2397 6.57297 21.513 6.86075 21.7053Z" fill="#A6A8AE"/>
</g>
<defs>
<clipPath id="clip0_617_829">
<rect width="24" height="24" fill="white" transform="translate(0.5)"/>
</clipPath>
</defs>
</svg>
