<svg width="12" height="12" viewBox="0 0 12 12" fill="none" xmlns="http://www.w3.org/2000/svg">
<g clip-path="url(#clip0_617_557)">
<path d="M6.00005 8.58501C5.67152 8.5856 5.3461 8.52143 5.04239 8.39617C4.73869 8.27091 4.46264 8.08702 4.23005 7.85501L0.145047 3.77001C0.0508951 3.67586 -0.0019989 3.54816 -0.0019989 3.41501C-0.0019989 3.28186 0.0508951 3.15416 0.145047 3.06001C0.239199 2.96586 0.366896 2.91296 0.500047 2.91296C0.633198 2.91296 0.760895 2.96586 0.855047 3.06001L4.94005 7.14501C5.2213 7.42591 5.60255 7.58369 6.00005 7.58369C6.39755 7.58369 6.7788 7.42591 7.06005 7.14501L11.145 3.06001C11.2392 2.96586 11.3669 2.91296 11.5 2.91296C11.6332 2.91296 11.7609 2.96586 11.855 3.06001C11.9492 3.15416 12.0021 3.28186 12.0021 3.41501C12.0021 3.54816 11.9492 3.67586 11.855 3.77001L7.77005 7.85501C7.53745 8.08702 7.26141 8.27091 6.9577 8.39617C6.65399 8.52143 6.32857 8.5856 6.00005 8.58501Z" fill="#A6A8AE"/>
</g>
<defs>
<clipPath id="clip0_617_557">
<rect width="12" height="12" fill="white"/>
</clipPath>
</defs>
</svg>
