<svg width="18" height="18" viewBox="0 0 18 18" fill="none" xmlns="http://www.w3.org/2000/svg">
<g id="fi-rr-user" clip-path="url(#clip0_462_4353)">
<g id="Vector">
<path fill-rule="evenodd" clip-rule="evenodd" d="M11.5001 8.24155C10.76 8.73602 9.89002 8.99994 9 8.99994C7.80689 8.99875 6.66299 8.52426 5.81934 7.68061C4.97568 6.83695 4.50119 5.69305 4.5 4.49994C4.5 3.60993 4.76392 2.7399 5.25839 1.99987C5.75285 1.25985 6.45566 0.683077 7.27793 0.342483C8.10019 0.00188875 9.00499 -0.0872263 9.87791 0.0864072C10.7508 0.260041 11.5526 0.688624 12.182 1.31796C12.8113 1.9473 13.2399 2.74912 13.4135 3.62203C13.5872 4.49495 13.4981 5.39975 13.1575 6.22202C12.8169 7.04428 12.2401 7.74709 11.5001 8.24155ZM10.6667 2.00553C10.1734 1.67589 9.59334 1.49994 9 1.49994C8.20435 1.49994 7.44129 1.81601 6.87868 2.37862C6.31607 2.94123 6 3.70429 6 4.49994C6 5.09329 6.17595 5.6733 6.50559 6.16665C6.83524 6.66 7.30377 7.04452 7.85195 7.27158C8.40013 7.49864 9.00333 7.55805 9.58527 7.4423C10.1672 7.32654 10.7018 7.04082 11.1213 6.62126C11.5409 6.2017 11.8266 5.66716 11.9424 5.08521C12.0581 4.50327 11.9987 3.90007 11.7716 3.35189C11.5446 2.80371 11.1601 2.33518 10.6667 2.00553Z" fill="#CC6FFF"/>
<path d="M4.22922 12.4797C5.49466 11.2142 7.2104 10.5024 9 10.5004C10.7896 10.5024 12.5053 11.2142 13.7708 12.4797C15.0362 13.7451 15.748 15.4608 15.75 17.2504C15.75 17.4494 15.671 17.6401 15.5303 17.7808C15.3897 17.9214 15.1989 18.0004 15 18.0004C14.8011 18.0004 14.6103 17.9214 14.4697 17.7808C14.329 17.6401 14.25 17.4494 14.25 17.2504C14.25 15.8581 13.6969 14.5227 12.7123 13.5381C11.7277 12.5536 10.3924 12.0004 9 12.0004C7.60761 12.0004 6.27226 12.5536 5.28769 13.5381C4.30312 14.5227 3.75 15.8581 3.75 17.2504C3.75 17.4494 3.67098 17.6401 3.53033 17.7808C3.38968 17.9214 3.19891 18.0004 3 18.0004C2.80109 18.0004 2.61032 17.9214 2.46967 17.7808C2.32902 17.6401 2.25 17.4494 2.25 17.2504C2.25199 15.4608 2.96378 13.7451 4.22922 12.4797Z" fill="#CC6FFF"/>
</g>
</g>
<defs>
<clipPath id="clip0_462_4353">
<rect width="18" height="18" fill="white"/>
</clipPath>
</defs>
</svg>
