<svg width="25" height="24" viewBox="0 0 25 24" fill="none" xmlns="http://www.w3.org/2000/svg">
<g clip-path="url(#clip0_617_782)">
<path d="M12.5 7.00015H7.5C7.23478 7.00015 6.98043 6.89479 6.79289 6.70726C6.60536 6.51972 6.5 6.26537 6.5 6.00015C6.5 5.73493 6.60536 5.48058 6.79289 5.29305C6.98043 5.10551 7.23478 5.00015 7.5 5.00015H12.5C12.7652 5.00015 13.0196 5.10551 13.2071 5.29305C13.3946 5.48058 13.5 5.73493 13.5 6.00015C13.5 6.26537 13.3946 6.51972 13.2071 6.70726C13.0196 6.89479 12.7652 7.00015 12.5 7.00015Z" fill="#CC6FFF"/>
<path d="M7.5 9C7.23478 9 6.98043 9.10536 6.79289 9.29289C6.60536 9.48043 6.5 9.73478 6.5 10C6.5 10.2652 6.60536 10.5196 6.79289 10.7071C6.98043 10.8946 7.23478 11 7.5 11H17.5C17.7652 11 18.0196 10.8946 18.2071 10.7071C18.3946 10.5196 18.5 10.2652 18.5 10C18.5 9.73478 18.3946 9.48043 18.2071 9.29289C18.0196 9.10536 17.7652 9 17.5 9H7.5Z" fill="#CC6FFF"/>
<path d="M6.79289 13.2927C6.98043 13.1052 7.23478 12.9998 7.5 12.9998H17.5C17.7652 12.9998 18.0196 13.1052 18.2071 13.2927C18.3946 13.4803 18.5 13.7346 18.5 13.9999C18.5 14.2651 18.3946 14.5194 18.2071 14.707C18.0196 14.8945 17.7652 14.9999 17.5 14.9999H7.5C7.23478 14.9999 6.98043 14.8945 6.79289 14.707C6.60536 14.5194 6.5 14.2651 6.5 13.9999C6.5 13.7346 6.60536 13.4803 6.79289 13.2927Z" fill="#CC6FFF"/>
<path fill-rule="evenodd" clip-rule="evenodd" d="M4.5 0H20.5C21.5609 0 22.5783 0.421427 23.3284 1.17157C24.0786 1.92172 24.5 2.93913 24.5 4V16C24.5 17.0609 24.0786 18.0783 23.3284 18.8284C22.5783 19.5786 21.5609 20 20.5 20H17.6L13.143 23.763C12.9624 23.9158 12.7335 23.9997 12.497 23.9997C12.2605 23.9997 12.0316 23.9158 11.851 23.763L7.4 20H4.5C3.43913 20 2.42172 19.5786 1.67157 18.8284C0.921427 18.0783 0.5 17.0609 0.5 16V4C0.5 2.93913 0.921427 1.92172 1.67157 1.17157C2.42172 0.421427 3.43913 0 4.5 0ZM21.9142 17.4142C22.2893 17.0391 22.5 16.5304 22.5 16V4C22.5 3.46957 22.2893 2.96086 21.9142 2.58579C21.5391 2.21071 21.0304 2 20.5 2H4.5C3.96957 2 3.46086 2.21071 3.08579 2.58579C2.71071 2.96086 2.5 3.46957 2.5 4V16C2.5 16.5304 2.71071 17.0391 3.08579 17.4142C3.46086 17.7893 3.96957 18 4.5 18H7.4C7.8734 17.9997 8.33156 18.1673 8.693 18.473L12.5 21.69L16.309 18.473C16.6699 18.1677 17.1273 18.0001 17.6 18H20.5C21.0304 18 21.5391 17.7893 21.9142 17.4142Z" fill="#CC6FFF"/>
</g>
<defs>
<clipPath id="clip0_617_782">
<rect width="24" height="24" fill="white" transform="translate(0.5)"/>
</clipPath>
</defs>
</svg>
