<svg width="12" height="12" viewBox="0 0 12 12" fill="none" xmlns="http://www.w3.org/2000/svg">
<g id="fi-rr-brush" clip-path="url(#clip0_462_4338)">
<path id="Vector" d="M9.5 0H2.5C1.8372 0.000793929 1.20178 0.264441 0.73311 0.73311C0.264441 1.20178 0.000793929 1.8372 0 2.5L0 5C0.00119071 5.92789 0.370322 6.81744 1.02644 7.47356C1.68256 8.12968 2.57211 8.49881 3.5 8.5H4.5V10.5C4.5 10.8978 4.65804 11.2794 4.93934 11.5607C5.22064 11.842 5.60218 12 6 12C6.39782 12 6.77936 11.842 7.06066 11.5607C7.34196 11.2794 7.5 10.8978 7.5 10.5V8.5H8.5C9.42789 8.49881 10.3174 8.12968 10.9736 7.47356C11.6297 6.81744 11.9988 5.92789 12 5V2.5C11.9992 1.8372 11.7356 1.20178 11.2669 0.73311C10.7982 0.264441 10.1628 0.000793929 9.5 0V0ZM1 2.5C1 2.10218 1.15804 1.72064 1.43934 1.43934C1.72064 1.15804 2.10218 1 2.5 1H5V1.5C5 1.63261 5.05268 1.75979 5.14645 1.85355C5.24021 1.94732 5.36739 2 5.5 2C5.63261 2 5.75979 1.94732 5.85355 1.85355C5.94732 1.75979 6 1.63261 6 1.5V1H7V2.5C7 2.63261 7.05268 2.75979 7.14645 2.85355C7.24021 2.94732 7.36739 3 7.5 3C7.63261 3 7.75979 2.94732 7.85355 2.85355C7.94732 2.75979 8 2.63261 8 2.5V1H9V3.5C9 3.63261 9.05268 3.75979 9.14645 3.85355C9.24021 3.94732 9.36739 4 9.5 4C9.63261 4 9.75979 3.94732 9.85355 3.85355C9.94732 3.75979 10 3.63261 10 3.5V1.092C10.2915 1.19504 10.544 1.38562 10.723 1.63765C10.902 1.88969 10.9987 2.19087 11 2.5V5H1V2.5ZM8.5 7.5H7C6.86739 7.5 6.74021 7.55268 6.64645 7.64645C6.55268 7.74021 6.5 7.86739 6.5 8V10.5C6.5 10.6326 6.44732 10.7598 6.35355 10.8536C6.25979 10.9473 6.13261 11 6 11C5.86739 11 5.74021 10.9473 5.64645 10.8536C5.55268 10.7598 5.5 10.6326 5.5 10.5V8C5.5 7.86739 5.44732 7.74021 5.35355 7.64645C5.25979 7.55268 5.13261 7.5 5 7.5H3.5C3.01412 7.49936 2.53895 7.35715 2.13261 7.09075C1.72626 6.82435 1.40635 6.44532 1.212 6H10.788C10.5936 6.44532 10.2737 6.82435 9.86739 7.09075C9.46105 7.35715 8.98588 7.49936 8.5 7.5Z" fill="#A6A8AE"/>
</g>
<defs>
<clipPath id="clip0_462_4338">
<rect width="12" height="12" fill="white"/>
</clipPath>
</defs>
</svg>
