<svg width="16" height="16" viewBox="0 0 16 16" fill="none" xmlns="http://www.w3.org/2000/svg">
<g id="fi-rr-menu-dots">
<g id="Vector">
<path d="M1.33333 9.33353C2.06971 9.33353 2.66667 8.73658 2.66667 8.0002C2.66667 7.26382 2.06971 6.66687 1.33333 6.66687C0.596954 6.66687 0 7.26382 0 8.0002C0 8.73658 0.596954 9.33353 1.33333 9.33353Z" fill="#A6A8AE"/>
<path d="M8.00005 9.33353C8.73643 9.33353 9.33338 8.73658 9.33338 8.0002C9.33338 7.26382 8.73643 6.66687 8.00005 6.66687C7.26367 6.66687 6.66672 7.26382 6.66672 8.0002C6.66672 8.73658 7.26367 9.33353 8.00005 9.33353Z" fill="#A6A8AE"/>
<path d="M16 8.0002C16 8.73658 15.403 9.33353 14.6666 9.33353C13.9303 9.33353 13.3333 8.73658 13.3333 8.0002C13.3333 7.26382 13.9303 6.66687 14.6666 6.66687C15.403 6.66687 16 7.26382 16 8.0002Z" fill="#A6A8AE"/>
</g>
</g>
</svg>
