<svg width="12" height="12" viewBox="0 0 12 12" fill="none" xmlns="http://www.w3.org/2000/svg">
<g id="fi-rr-book-alt" clip-path="url(#clip0_462_4330)">
<path id="Vector" d="M11.1 1.08149C10.8189 0.846451 10.4895 0.676181 10.1352 0.582769C9.78094 0.489356 9.41043 0.475091 9.05 0.540986L7.139 0.887986C6.6978 0.969008 6.29664 1.196 6 1.53249C5.70258 1.19542 5.30028 0.968375 4.858 0.887986L2.95 0.540986C2.58958 0.475033 2.21906 0.489111 1.86468 0.582224C1.51031 0.675337 1.18073 0.845208 0.899279 1.07981C0.61783 1.31442 0.391389 1.60802 0.235987 1.93984C0.0805852 2.27166 2.05915e-05 2.63358 -3.8147e-06 2.99999L-3.8147e-06 8.39649C2.49132e-05 8.98189 0.205485 9.54871 0.580563 9.99817C0.955641 10.4476 1.47655 10.7512 2.0525 10.856L5.1955 11.4275C5.72747 11.5241 6.27252 11.5241 6.8045 11.4275L9.95 10.856C10.5255 10.7507 11.0458 10.4469 11.4204 9.99747C11.795 9.54807 12.0001 8.98153 12 8.39649V2.99999C12.0002 2.63371 11.9197 2.27189 11.7641 1.94028C11.6086 1.60868 11.3818 1.31545 11.1 1.08149ZM5.5 10.464C5.458 10.458 5.416 10.451 5.374 10.4435L2.2315 9.87249C1.88588 9.80961 1.57329 9.62742 1.34824 9.35768C1.12319 9.08795 0.999943 8.74778 0.999996 8.39649V2.99999C0.999996 2.60216 1.15803 2.22063 1.43934 1.93933C1.72064 1.65802 2.10217 1.49999 2.5 1.49999C2.59054 1.5002 2.68089 1.5084 2.77 1.52449L4.68 1.87449C4.9098 1.91654 5.11763 2.03772 5.26742 2.21701C5.4172 2.39629 5.49949 2.62236 5.5 2.85599V10.464ZM11 8.39649C11.0001 8.74778 10.8768 9.08795 10.6518 9.35768C10.4267 9.62742 10.1141 9.80961 9.7685 9.87249L6.626 10.4435C6.584 10.451 6.542 10.458 6.5 10.464V2.85599C6.49996 2.62179 6.58212 2.39501 6.73216 2.21519C6.88219 2.03537 7.09059 1.91391 7.321 1.87199L9.2315 1.52199C9.44786 1.48262 9.67023 1.49131 9.88285 1.54744C10.0955 1.60357 10.2932 1.70577 10.4619 1.84679C10.6306 1.98781 10.7663 2.16421 10.8593 2.3635C10.9523 2.56278 11.0003 2.78008 11 2.99999V8.39649Z" fill="#A6A8AE"/>
</g>
<defs>
<clipPath id="clip0_462_4330">
<rect width="12" height="12" fill="white"/>
</clipPath>
</defs>
</svg>
