<svg width="16" height="16" viewBox="0 0 16 16" fill="none" xmlns="http://www.w3.org/2000/svg">
<g id="fi-rr-user-add" clip-path="url(#clip0_462_4695)">
<g id="Vector">
<path fill-rule="evenodd" clip-rule="evenodd" d="M6 8C6.79113 8 7.56449 7.76541 8.22228 7.32588C8.88008 6.88635 9.39277 6.26164 9.69552 5.53074C9.99827 4.79983 10.0775 3.99556 9.92314 3.21964C9.7688 2.44372 9.38784 1.73098 8.82843 1.17157C8.26902 0.612165 7.55629 0.231202 6.78036 0.0768607C6.00444 -0.0774802 5.20017 0.00173314 4.46927 0.304484C3.73836 0.607234 3.11365 1.11992 2.67412 1.77772C2.2346 2.43552 2 3.20888 2 4C2.00106 5.06054 2.42283 6.07734 3.17274 6.82726C3.92266 7.57718 4.93946 7.99894 6 8ZM6 1.33334C6.52742 1.33334 7.04299 1.48973 7.48152 1.78275C7.92005 2.07577 8.26185 2.49224 8.46368 2.97951C8.66551 3.46678 8.71832 4.00296 8.61543 4.52024C8.51253 5.03753 8.25856 5.51268 7.88562 5.88562C7.51268 6.25856 7.03752 6.51254 6.52024 6.61543C6.00296 6.71832 5.46678 6.66551 4.97951 6.46368C4.49224 6.26185 4.07577 5.92005 3.78275 5.48152C3.48973 5.04299 3.33333 4.52742 3.33333 4C3.33333 3.29276 3.61428 2.61448 4.11438 2.11438C4.61448 1.61429 5.29276 1.33334 6 1.33334Z" fill="#EBEBED"/>
<path d="M15.3332 7.33378H13.9999V6.00045C13.9999 5.82364 13.9297 5.65407 13.8046 5.52904C13.6796 5.40402 13.51 5.33378 13.3332 5.33378C13.1564 5.33378 12.9868 5.40402 12.8618 5.52904C12.7368 5.65407 12.6666 5.82364 12.6666 6.00045V7.33378H11.3332C11.1564 7.33378 10.9869 7.40401 10.8618 7.52904C10.7368 7.65406 10.6666 7.82363 10.6666 8.00044C10.6666 8.17725 10.7368 8.34682 10.8618 8.47185C10.9869 8.59687 11.1564 8.66711 11.3332 8.66711H12.6666V10.0004C12.6666 10.1772 12.7368 10.3468 12.8618 10.4718C12.9868 10.5969 13.1564 10.6671 13.3332 10.6671C13.51 10.6671 13.6796 10.5969 13.8046 10.4718C13.9297 10.3468 13.9999 10.1772 13.9999 10.0004V8.66711H15.3332C15.51 8.66711 15.6796 8.59687 15.8046 8.47185C15.9297 8.34682 15.9999 8.17725 15.9999 8.00044C15.9999 7.82363 15.9297 7.65406 15.8046 7.52904C15.6796 7.40401 15.51 7.33378 15.3332 7.33378Z" fill="#EBEBED"/>
<path d="M1.75931 11.0931C2.88414 9.96825 4.40924 9.33554 6 9.33378C7.59076 9.33554 9.11586 9.96825 10.2407 11.0931C11.3655 12.2179 11.9982 13.743 12 15.3338C12 15.5106 11.9298 15.6802 11.8047 15.8052C11.6797 15.9302 11.5101 16.0004 11.3333 16.0004C11.1565 16.0004 10.987 15.9302 10.8619 15.8052C10.7369 15.6802 10.6667 15.5106 10.6667 15.3338C10.6667 14.0961 10.175 12.9091 9.29983 12.0339C8.42466 11.1588 7.23768 10.6671 6 10.6671C4.76232 10.6671 3.57534 11.1588 2.70017 12.0339C1.825 12.9091 1.33333 14.0961 1.33333 15.3338C1.33333 15.5106 1.2631 15.6802 1.13807 15.8052C1.01305 15.9302 0.843478 16.0004 0.666667 16.0004C0.489856 16.0004 0.320286 15.9302 0.195262 15.8052C0.0702379 15.6802 0 15.5106 0 15.3338C0.00176457 13.743 0.634472 12.2179 1.75931 11.0931Z" fill="#EBEBED"/>
</g>
</g>
<defs>
<clipPath id="clip0_462_4695">
<rect width="16" height="16" fill="white"/>
</clipPath>
</defs>
</svg>
