<svg width="15" height="16" viewBox="0 0 15 16" fill="none" xmlns="http://www.w3.org/2000/svg">
<path d="M2.5 5C1.39543 5 0.5 4.10457 0.5 3C0.5 1.89543 1.39543 1 2.5 1C3.60457 1 4.5 1.89543 4.5 3C4.5 4.10457 3.60457 5 2.5 5ZM2.5 5V11M4.5 13C4.5 14.1046 3.60457 15 2.5 15C1.39543 15 0.5 14.1046 0.5 13C0.5 11.8954 1.39543 11 2.5 11M4.5 13C4.5 11.8954 3.60457 11 2.5 11M4.5 13H9.5C11.1569 13 12.5 11.6569 12.5 10V8M12.5 8C11.3954 8 10.5 7.10457 10.5 6C10.5 4.89543 11.3954 4 12.5 4C13.6046 4 14.5 4.89543 14.5 6C14.5 7.10457 13.6046 8 12.5 8Z" stroke="#A6A8AE"/>
</svg>
