<svg width="32" height="32" viewBox="0 0 32 32" fill="none" xmlns="http://www.w3.org/2000/svg">
<g clip-path="url(#clip0_20_6573)">
<path d="M9.74815 20.5617C9.7605 21.1545 9.65588 21.7306 9.48017 22.3072C9.40718 22.3062 9.35354 22.2973 9.29717 22.2878C9.31083 22.5525 9.25602 22.6459 9.10451 22.6678C9.07722 22.5709 9.04633 22.4789 9.02641 22.3845C9.01242 22.3183 9.01407 22.2488 9.00737 22.1809C9.00378 22.1444 9.00962 22.0985 8.99 22.0735C8.90209 21.9614 8.9139 21.7838 8.75597 21.7172C8.74588 21.7129 8.75115 21.6774 8.74502 21.6578C8.71179 21.5512 8.67721 21.445 8.6431 21.3387C8.62723 21.2874 8.78151 21.1999 8.61608 21.1757C8.4745 21.1549 8.50088 21.108 8.5188 21.0185C8.54045 20.9105 8.45486 20.8073 8.38173 20.8529C8.2417 20.9403 8.20293 20.8488 8.16014 20.749C8.13082 20.7569 8.10931 20.7584 8.09222 20.7678C7.9787 20.8308 7.90328 20.8294 7.90376 20.6694C7.90385 20.6378 7.88564 20.5904 7.8613 20.5772C7.74011 20.5117 7.67845 20.3322 7.49266 20.3851C7.46294 20.3936 7.42219 20.3633 7.39811 20.355C7.46072 20.2526 7.5173 20.1601 7.58818 20.0443C7.50475 20.0443 7.46189 20.0443 7.38772 20.0443C7.43077 19.9638 7.46342 19.9028 7.49607 19.8418C7.48516 19.8297 7.47425 19.8177 7.46333 19.8056C7.41092 19.8464 7.35851 19.8872 7.28091 19.9475C7.20544 19.825 7.13185 19.7056 7.05039 19.5734C6.72504 19.5053 6.64667 19.4112 6.79233 19.185C6.57014 19.0701 6.34974 18.9562 6.12993 18.8426C6.21452 18.6256 6.16686 18.5292 5.96572 18.4811C5.93613 18.3894 5.90815 18.3028 5.88017 18.2161C5.86361 18.2203 5.84706 18.2245 5.8305 18.2287C5.8183 18.2944 5.8061 18.3601 5.7871 18.4625C5.71681 18.3481 5.66721 18.2674 5.6081 18.1712C5.57537 18.2287 5.55222 18.2694 5.50493 18.3526C5.46208 18.251 5.45145 18.1476 5.40129 18.1222C5.27342 18.0573 5.31967 17.9607 5.31922 17.8687C5.31892 17.8086 5.32396 17.7479 5.31675 17.6886C5.27998 17.3864 5.20816 17.0874 5.27065 16.7782C5.2831 16.7166 5.23461 16.6425 5.21381 16.5743C5.19494 16.5125 5.15879 16.4508 5.15873 16.389C5.15611 13.8635 5.15672 11.338 5.16888 8.8125C5.23434 8.83812 5.29219 8.85754 5.34002 8.89119C5.38067 8.9198 5.4029 8.97795 5.44527 9.00014C5.57405 9.06758 5.70864 9.12393 5.85391 9.19054C5.87722 9.18052 5.92964 9.15798 5.98205 9.13544C5.98861 9.19052 5.99581 9.24554 6.00151 9.30071C6.00553 9.33966 6.00751 9.37883 6.00977 9.40935C6.07233 9.39088 6.12524 9.37526 6.17815 9.35964C6.19022 9.44062 6.20228 9.52159 6.21751 9.62373C6.37407 9.53689 6.44227 9.68498 6.55745 9.81866C6.54936 9.71228 6.54541 9.66031 6.54119 9.60489C6.71755 9.64273 6.74169 9.75265 6.62727 9.97863C6.70427 10.035 6.7802 10.0969 6.86236 10.1489C6.93421 10.1944 6.98032 10.233 6.95222 10.3355C6.94134 10.3752 7.00698 10.4428 7.0486 10.4877C7.08369 10.5255 7.14355 10.5412 7.1763 10.5802C7.23482 10.6499 7.28119 10.7298 7.35309 10.8356C7.35844 10.865 7.3501 10.9528 7.38886 11.0067C7.49528 11.1548 7.62147 11.2886 7.74148 11.43C7.78345 11.4135 7.83234 11.3942 7.92891 11.3563C7.88293 11.5014 7.85104 11.6021 7.8112 11.7279C7.88863 11.7001 7.93819 11.6824 7.98151 11.6669C8.02562 11.7088 8.06622 11.7403 8.09785 11.7791C8.15063 11.8439 8.24959 11.9246 8.23782 11.9788C8.19482 12.1766 8.2369 12.3135 8.48991 12.3946C8.27191 12.4605 8.35498 12.5288 8.42312 12.5944C8.48302 12.6522 8.54188 12.7079 8.42281 12.7967C8.4846 12.7967 8.5165 12.7967 8.52205 12.7967C8.54879 12.8654 8.57831 12.9154 8.58608 12.9686C8.5938 13.0214 8.57961 13.0774 8.57466 13.1363C8.62702 13.1363 8.67985 13.1363 8.73634 13.1363C8.73048 13.1908 8.72564 13.2358 8.7208 13.2808C8.7335 13.2729 8.7462 13.265 8.7589 13.2571C8.85798 13.3783 8.97411 13.4896 9.05247 13.623C9.19842 13.8715 9.20572 14.1983 9.47862 14.3765C9.48615 14.3814 9.4917 14.3937 9.49293 14.4032C9.50633 14.5069 9.51003 14.6127 9.53354 14.714C9.56187 14.8359 9.54065 14.9929 9.71786 15.0457C9.71843 16.8347 9.71823 18.6091 9.71984 20.3834C9.7199 20.4428 9.7383 20.5022 9.74815 20.5617Z" fill="#D571FF"/>
<path d="M9.71751 15.0311C9.54077 14.993 9.56199 14.8359 9.53366 14.714C9.51015 14.6127 9.50645 14.5069 9.49306 14.4032C9.49182 14.3937 9.48627 14.3814 9.47874 14.3765C9.20584 14.1983 9.19854 13.8715 9.05259 13.623C8.97423 13.4896 8.85811 13.3783 8.75902 13.2571C8.74632 13.265 8.73362 13.2729 8.72092 13.2808C8.72576 13.2358 8.7306 13.1908 8.73646 13.1363C8.67997 13.1363 8.62714 13.1363 8.57479 13.1363C8.57973 13.0774 8.59392 13.0214 8.5862 12.9686C8.57843 12.9154 8.54891 12.8654 8.52218 12.7967C8.51662 12.7967 8.48472 12.7967 8.42293 12.7967C8.542 12.7079 8.48314 12.6522 8.42324 12.5944C8.3551 12.5288 8.27203 12.4605 8.49004 12.3947C8.23702 12.3135 8.19495 12.1766 8.23794 11.9788C8.24971 11.9246 8.15075 11.8439 8.09797 11.7792C8.06634 11.7403 8.02574 11.7088 7.98163 11.6669C7.93831 11.6824 7.88875 11.7001 7.81133 11.7279C7.85116 11.6021 7.88305 11.5014 7.92903 11.3563C7.83246 11.3942 7.78357 11.4135 7.7416 11.43C7.62159 11.2886 7.4954 11.1548 7.38899 11.0067C7.35022 10.9528 7.35856 10.865 7.35321 10.8356C7.28131 10.7299 7.23495 10.6499 7.17642 10.5802C7.14367 10.5412 7.08381 10.5255 7.04872 10.4877C7.0071 10.4429 6.94146 10.3752 6.95234 10.3355C6.98044 10.233 6.93433 10.1944 6.86248 10.1489C6.78032 10.0969 6.70439 10.035 6.62739 9.97864C6.74181 9.75265 6.71767 9.64274 6.54131 9.6049C6.54553 9.66032 6.54948 9.71228 6.55757 9.81866C6.44239 9.68498 6.37419 9.5369 6.21763 9.62374C6.20241 9.5216 6.19034 9.44062 6.17827 9.35965C6.12536 9.37527 6.07245 9.39089 6.00989 9.40936C6.00763 9.37884 6.00565 9.33967 6.00163 9.30071C5.99594 9.24554 5.98873 9.19053 5.98218 9.13545C5.92976 9.15799 5.87734 9.18052 5.85403 9.19055C5.70876 9.12394 5.57417 9.06758 5.44539 9.00014C5.40302 8.97795 5.38079 8.91981 5.34014 8.8912C5.29231 8.85754 5.23446 8.83812 5.16875 8.79786C5.15648 7.39446 5.15677 6.00572 5.1551 4.61699C5.15502 4.55758 5.13675 4.49819 5.12695 4.43879C5.16661 4.19075 5.31121 4.0608 5.55779 4.06079C9.41368 4.06074 13.2696 4.06151 17.1307 4.07237C17.0792 4.08631 17.0225 4.09312 16.9658 4.09317C15.9461 4.0941 14.9263 4.09421 13.8918 4.09421C12.3098 4.0939 10.7424 4.09383 9.17499 4.09393C8.96464 4.09395 8.9647 4.09431 9.04514 4.28966C9.04896 4.29893 9.05078 4.30926 9.05213 4.31929C9.06976 4.45064 9.21514 4.64536 9.33146 4.64966C9.49059 4.65555 9.51791 4.75275 9.53063 4.87235C9.54918 5.04674 9.78491 5.1012 9.76572 5.29789C9.7653 5.3022 9.82185 5.31319 9.8522 5.31917C9.9587 5.34016 10.018 5.39324 10.0023 5.51276C9.99742 5.55016 10.0087 5.59772 10.0298 5.62905C10.107 5.74377 10.1915 5.8536 10.282 5.97727C10.304 5.97124 10.36 5.95591 10.4238 5.93844C10.3996 6.10904 10.465 6.22195 10.5751 6.31916C10.6726 6.40523 10.7645 6.49768 10.8684 6.59643C10.7989 6.6364 10.6841 6.74385 10.8162 6.75932C11.0249 6.78373 10.981 6.90657 10.9978 7.02074C11.0038 7.06169 11.0006 7.10398 11.006 7.14508C11.0074 7.15538 11.0258 7.16342 11.0367 7.17275C11.0599 7.13292 11.0808 7.09712 11.1169 7.03503C11.1388 7.0923 11.1486 7.11883 11.1589 7.14519C11.1849 7.21146 11.1946 7.31869 11.2398 7.33675C11.4321 7.4135 11.4614 7.5392 11.414 7.71993C11.4067 7.74752 11.4731 7.82359 11.5123 7.82923C11.6914 7.85498 11.7659 7.95119 11.7577 8.1396C11.7556 8.18725 11.8086 8.2692 11.8514 8.28117C12.0077 8.32486 12.1695 8.36347 12.3308 8.37112C12.6218 8.38492 12.9139 8.37238 13.2054 8.37774C13.2518 8.37859 13.2975 8.41537 13.3436 8.43554C12.3312 8.43676 11.3188 8.44133 10.3065 8.43698C10.0366 8.43582 9.8661 8.55601 9.75124 8.81424C9.72871 8.89148 9.71956 8.95291 9.71952 9.01435C9.71831 11.0199 9.71797 13.0255 9.71751 15.0311Z" fill="#DE74FF"/>
<path d="M24.0634 27.9972C23.6024 27.9778 23.1688 27.845 22.7462 27.6725C21.7646 27.2718 21.0794 26.5337 20.4672 25.6992C19.3875 24.2276 18.2877 22.7708 17.1977 21.3067C16.4308 20.2765 15.6668 19.244 14.9003 18.2135C14.3323 17.4499 13.7619 16.688 13.1939 15.9244C13.1352 15.8454 13.0728 15.7654 13.0334 15.6764C12.8848 15.3415 13.0441 15.0175 13.4368 14.8877C13.5136 14.8986 13.5703 14.9057 13.6269 14.9057C14.3138 14.9067 15.0006 14.9066 15.6897 14.9182C15.7509 14.9621 15.828 14.981 15.8649 15.0301C15.9291 15.1155 15.9648 15.2217 16.02 15.3146C16.0416 15.3509 16.083 15.3997 16.1163 15.4005C16.3361 15.4057 16.3742 15.6296 16.412 15.7377C16.4628 15.8829 16.6017 15.9031 16.6615 16.0214C16.6917 16.0813 16.7821 16.1326 16.7795 16.2248C16.7763 16.3349 16.8418 16.3811 16.9198 16.4436C17.0042 16.5112 17.0929 16.6134 17.1126 16.7137C17.1526 16.9182 17.195 16.9618 17.3764 16.8819C17.3876 16.877 17.4049 16.8861 17.4296 16.8905C17.4213 16.9184 17.4194 16.9445 17.4068 16.9636C17.3529 17.045 17.3158 17.0981 17.4222 17.1936C17.5142 17.2762 17.6162 17.4053 17.547 17.5673C17.5393 17.5855 17.5497 17.6188 17.5627 17.6373C17.653 17.7657 17.7462 17.892 17.839 18.0197C17.8104 18.0576 17.7816 18.0957 17.7311 18.1627C17.8139 18.1694 17.8652 18.1735 17.8807 18.1748C18.0084 18.3138 18.1203 18.4355 18.2257 18.5502C18.2474 18.6252 18.2588 18.7752 18.2986 18.7832C18.4985 18.8231 18.4313 19.135 18.6641 19.1224C18.6741 19.1218 18.6881 19.1543 18.6964 19.1732C18.7363 19.2646 18.7558 19.3732 18.818 19.4451C18.9566 19.6055 19.0485 19.7776 19.0651 19.9908C19.0689 20.0394 19.0874 20.1029 19.1222 20.1302C19.2526 20.2322 19.156 20.4909 19.3925 20.5169C19.3998 20.5177 19.399 20.5654 19.4073 20.5894C19.4259 20.6429 19.4391 20.7011 19.4699 20.747C19.5973 20.9372 19.7313 21.1229 19.8611 21.3115C19.9009 21.3694 19.9429 21.428 19.9699 21.4922C20.0095 21.5862 19.9899 21.7004 20.0972 21.7729C20.1358 21.799 20.1286 21.8876 20.1503 21.9447C20.2026 22.082 20.2585 22.218 20.3166 22.353C20.3221 22.3656 20.3535 22.3736 20.3725 22.3728C20.4798 22.3687 20.5017 22.4301 20.5031 22.5221C20.5037 22.5585 20.5322 22.5963 20.5533 22.6303C20.6528 22.7906 20.7532 22.9503 20.8551 23.109C20.9118 23.1973 20.9681 23.2864 21.032 23.3693C21.1019 23.4599 21.1812 23.5431 21.2549 23.6308C21.2874 23.6695 21.3203 23.7089 21.3458 23.7522C21.38 23.8104 21.4373 23.8758 21.4316 23.9328C21.4165 24.0848 21.4825 24.188 21.5967 24.26C21.6873 24.3172 21.7184 24.3831 21.7235 24.4879C21.7285 24.5919 21.7472 24.7699 21.7963 24.7835C21.9647 24.83 21.9784 24.9606 22.0142 25.0718C22.0729 25.0678 22.151 25.0484 22.1592 25.0645C22.187 25.1193 22.2153 25.1952 22.1974 25.2472C22.1621 25.3494 22.1255 25.425 22.2791 25.4462C22.3093 25.4503 22.342 25.4984 22.3575 25.5334C22.4005 25.6299 22.4266 25.7345 22.4749 25.8279C22.5322 25.9388 22.5837 26.0692 22.6763 26.1423C22.9326 26.3447 22.9459 26.3483 22.859 26.6176C22.8699 26.6268 22.8801 26.6399 22.8935 26.646C23.0948 26.7374 23.2718 26.8488 23.3305 27.0863C23.3406 27.1271 23.4076 27.1544 23.4492 27.1868C23.5094 27.2338 23.5749 27.2752 23.6291 27.3282C23.6564 27.3548 23.6546 27.411 23.6817 27.4381C23.8061 27.5623 23.9404 27.6768 24.0612 27.8042C24.0986 27.8435 24.1046 27.9126 24.116 27.9689C24.0925 27.9788 24.0779 27.988 24.0634 27.9972Z" fill="#DB75FF"/>
<path d="M13.9065 4.09448C14.9263 4.09419 15.9461 4.09408 16.9658 4.09315C17.0225 4.0931 17.0792 4.08629 17.1451 4.07382C17.192 4.06809 17.2296 4.07117 17.2706 4.09275C17.2229 4.1961 17.2783 4.22892 17.3429 4.26649C17.5162 4.36726 17.6848 4.47484 17.7478 4.68081C17.9257 4.6489 17.9917 4.71011 17.952 4.87392C17.9219 4.99824 17.9456 5.07369 18.0846 5.09884C18.1819 5.11643 18.2478 5.16784 18.2024 5.28642C18.1708 5.36891 18.2174 5.40344 18.294 5.40558C18.4084 5.40878 18.4433 5.46835 18.441 5.57738C18.4399 5.632 18.462 5.72463 18.4953 5.73594C18.6415 5.78554 18.6592 5.9378 18.7536 6.02356C18.8755 6.13442 18.992 6.2844 19.1375 6.32742C19.2967 6.37452 19.3706 6.4268 19.3795 6.58827C19.3819 6.63034 19.4236 6.68301 19.462 6.70494C19.4814 6.71599 19.5335 6.66846 19.5714 6.64877C19.5882 6.64009 19.6066 6.63477 19.64 6.62183C19.6574 6.76285 19.6587 6.90943 19.8397 6.92858C19.849 6.92956 19.8597 6.97127 19.8602 6.99424C19.864 7.15802 19.9334 7.26634 20.1022 7.30172C20.1447 7.31062 20.2119 7.331 20.2189 7.35849C20.2639 7.53595 20.3303 7.69267 20.5104 7.77303C20.5143 7.77473 20.5145 7.78366 20.5184 7.786C20.6493 7.86495 20.6179 8.1359 20.8645 8.0792C20.8706 8.0778 20.8828 8.08976 20.8876 8.09813C20.9508 8.20913 21.0137 8.32033 21.0757 8.43203C21.1646 8.59219 21.2131 8.7794 21.3858 8.88316C21.409 8.89709 21.4305 8.9301 21.4344 8.95696C21.453 9.08365 21.5122 9.1619 21.647 9.14653C21.6211 9.32499 21.7041 9.44861 21.8087 9.55896C21.9592 9.7179 22.1387 9.85013 22.2346 10.0577C22.2595 10.1116 22.3134 10.1534 22.3581 10.1966C22.4203 10.2568 22.5354 10.3077 22.5425 10.372C22.5778 10.6924 22.8223 10.7952 23.0553 10.9209C23.1013 10.9457 23.1363 10.9995 23.1645 11.047C23.2256 11.1502 23.221 11.2922 23.4101 11.2994C23.4983 11.3027 23.5779 11.4265 23.5501 11.5567C23.5139 11.7263 23.5241 11.7363 23.7066 11.7351C23.7849 11.9242 23.7668 12.1483 23.9091 12.3206C23.9584 12.3802 23.9713 12.4696 24.0028 12.5446C24.0123 12.5673 24.0328 12.6072 24.0408 12.6054C24.2412 12.5614 24.2701 12.6451 24.2069 12.8135C24.1975 12.8386 24.2328 12.8788 24.2427 12.9133C24.2519 12.9454 24.2655 12.9817 24.2587 13.0119C24.2345 13.1197 24.2839 13.1801 24.3762 13.219C24.2407 13.6385 24.1052 14.058 23.9557 14.4885C23.9233 14.4917 23.8923 14.4878 23.8886 14.4756C23.8305 14.2832 23.8269 14.2832 23.6161 14.3448C23.5808 14.3552 23.5332 14.3366 23.4951 14.3217C23.4427 14.3013 23.3922 14.2746 23.344 14.2455C23.2738 14.203 23.1821 14.1711 23.1425 14.1079C23.0413 13.9466 22.9638 13.7705 22.8727 13.5921C22.7709 13.6381 22.7145 13.6117 22.6456 13.5138C22.5691 13.4052 22.5634 13.2041 22.3413 13.2391C22.3499 13.1454 22.3569 13.0699 22.3653 12.9789C22.2331 12.9775 22.1922 12.9145 22.2417 12.7869C22.2737 12.7046 22.2316 12.6575 22.1469 12.6249C22.0269 12.5787 21.96 12.4236 21.8003 12.4508C21.7965 12.4514 21.7903 12.4342 21.7842 12.426C21.691 12.3019 21.5976 12.1779 21.4949 12.0413C21.5666 11.97 21.5069 11.9058 21.4372 11.8204C21.3449 11.7073 21.2831 11.5698 21.2043 11.4452C21.1809 11.4083 21.1422 11.3501 21.1142 11.3521C20.9495 11.3644 20.9203 11.232 20.8448 11.1369C20.7955 11.0748 20.6604 10.9962 20.6295 11.018C20.4357 11.1551 20.3724 10.944 20.3235 10.8772C20.24 10.7632 20.1997 10.7073 20.0659 10.8454C20.0459 10.7098 20.0312 10.5885 20.0501 10.4727C20.0683 10.3614 20.0427 10.305 19.9334 10.2795C19.8897 10.2693 19.8504 10.2405 19.8091 10.2202C19.8091 10.2202 19.8116 10.2189 19.811 10.2103C19.7995 10.1871 19.7886 10.1724 19.7777 10.1577C19.7777 10.1577 19.7807 10.1568 19.7803 10.1449C19.7701 10.084 19.7504 10.0345 19.7524 9.98585C19.7566 9.88367 19.7051 9.86403 19.6202 9.87955C19.6202 9.87955 19.6208 9.87717 19.6188 9.86973C19.6075 9.85658 19.5982 9.85085 19.5889 9.84512C19.5795 9.83371 19.57 9.82229 19.5583 9.79363C19.5469 9.76803 19.5377 9.75968 19.5285 9.75132C19.5285 9.75132 19.5308 9.75225 19.5306 9.73914C19.5549 9.57457 19.4924 9.50838 19.3393 9.53101C19.0871 9.32518 18.8453 9.10453 18.58 8.91732C18.2543 8.68748 17.8724 8.58136 17.4714 8.47923C17.3234 8.45669 17.1902 8.45192 17.0571 8.44715C17.0048 8.44425 16.9525 8.44136 16.8819 8.42966C16.8467 8.41585 16.8297 8.41086 16.8114 8.39657C16.7974 8.37739 16.7846 8.36751 16.7719 8.35763C16.7647 8.37384 16.7576 8.39004 16.7504 8.41358C16.7503 8.42092 16.7506 8.43558 16.7506 8.43558C16.6968 8.43654 16.643 8.43749 16.5758 8.42559C16.531 8.36237 16.4977 8.31307 16.4689 8.2613C16.4479 8.22337 16.4086 8.17392 16.4189 8.14383C16.4734 7.9847 16.3968 7.96085 16.2385 7.99147C16.2192 7.82515 16.2021 7.66707 16.1813 7.50948C16.1783 7.48626 16.1608 7.46243 16.1443 7.44392C16.0681 7.35827 15.9899 7.2744 15.8843 7.15927C15.7222 7.1412 15.7048 7.1194 15.7755 6.94455C15.7195 6.8926 15.6689 6.81567 15.5985 6.78641C15.4513 6.72523 15.6003 6.62966 15.5577 6.56168C15.5523 6.55295 15.5491 6.5428 15.5438 6.53396C15.437 6.35674 15.3256 6.18616 15.1437 6.07087C14.9483 5.94707 14.8905 5.75253 14.8885 5.53073C14.8875 5.41533 14.8577 5.29795 14.7309 5.25786C14.4846 5.17992 14.3703 4.98252 14.2791 4.76874C14.2291 4.65141 14.2236 4.50916 14.043 4.51512C14.0216 4.51583 13.9853 4.47814 13.9791 4.45263C13.9504 4.33433 13.9299 4.21405 13.9065 4.09448Z" fill="#F17AFF"/>
<path d="M5.12546 4.45325C5.13666 4.49818 5.15493 4.55757 5.155 4.61698C5.15668 6.00571 5.15639 7.39445 5.15671 8.79782C5.15675 11.338 5.15614 13.8635 5.15876 16.389C5.15883 16.4508 5.19497 16.5125 5.21384 16.5743C5.23464 16.6425 5.28313 16.7165 5.27068 16.7782C5.20819 17.0874 5.28001 17.3864 5.31678 17.6886C5.32399 17.7479 5.31895 17.8086 5.31925 17.8687C5.3197 17.9607 5.27345 18.0573 5.40132 18.1221C5.45148 18.1476 5.46211 18.251 5.50496 18.3526C5.55225 18.2694 5.5754 18.2287 5.60813 18.1712C5.66724 18.2674 5.71684 18.3481 5.78713 18.4625C5.80613 18.3601 5.81833 18.2944 5.83053 18.2287C5.84709 18.2245 5.86364 18.2203 5.8802 18.2161C5.90818 18.3027 5.93616 18.3894 5.96575 18.4811C6.16689 18.5292 6.21455 18.6256 6.12996 18.8426C6.34977 18.9562 6.57017 19.0701 6.79236 19.185C6.6467 19.4112 6.72507 19.5053 7.05042 19.5734C7.13188 19.7056 7.20547 19.825 7.28094 19.9475C7.35854 19.8872 7.41095 19.8464 7.46336 19.8056C7.47428 19.8177 7.48519 19.8297 7.4961 19.8417C7.46345 19.9028 7.4308 19.9638 7.38775 20.0443C7.46192 20.0443 7.50478 20.0443 7.58821 20.0443C7.51733 20.1601 7.46075 20.2526 7.39814 20.355C7.42222 20.3633 7.46297 20.3936 7.49269 20.3851C7.67848 20.3322 7.74014 20.5117 7.86133 20.5772C7.88567 20.5903 7.90388 20.6378 7.90379 20.6694C7.90331 20.8294 7.97873 20.8308 8.09225 20.7678C8.10934 20.7584 8.13085 20.7569 8.16017 20.749C8.20296 20.8487 8.24173 20.9403 8.38176 20.8529C8.45489 20.8073 8.54048 20.9105 8.51883 21.0185C8.50091 21.108 8.47453 21.1549 8.61611 21.1756C8.78154 21.1999 8.62727 21.2874 8.64313 21.3387C8.67724 21.445 8.71182 21.5512 8.74505 21.6577C8.75118 21.6774 8.74591 21.7129 8.756 21.7172C8.91393 21.7838 8.90212 21.9614 8.99003 22.0735C9.00965 22.0985 9.00381 22.1444 9.0074 22.1809C9.0141 22.2488 9.01245 22.3183 9.02644 22.3845C9.04636 22.4789 9.07725 22.5709 9.10454 22.6678C9.25605 22.6459 9.31086 22.5525 9.2972 22.2878C9.35357 22.2972 9.40721 22.3062 9.4746 22.3169C9.25028 23.2223 8.86444 24.057 8.32735 24.8224C7.67754 25.7485 6.89484 26.5374 5.93135 27.1366C5.81023 27.2119 5.6601 27.2562 5.51773 27.2783C5.2819 27.3149 5.12336 27.1431 5.1227 26.872C5.121 26.1741 5.1223 25.4763 5.12236 24.7784C5.12293 18.0082 5.12349 11.2379 5.12546 4.45325ZM6.00386 18.9507C6.02838 18.9546 6.0529 18.9586 6.07741 18.9625C6.07695 18.9395 6.07648 18.9165 6.07602 18.8936C6.05304 18.9057 6.03006 18.9178 6.00386 18.9507ZM6.61642 19.3787C6.61041 19.3617 6.60439 19.3447 6.59837 19.3277C6.58965 19.3317 6.58093 19.3357 6.57221 19.3397C6.58241 19.3572 6.59261 19.3747 6.61642 19.3787ZM9.24365 22.7935C9.24352 22.8058 9.24339 22.8181 9.24326 22.8305C9.24838 22.8305 9.25795 22.8309 9.25798 22.8306C9.25893 22.8183 9.25898 22.8059 9.24365 22.7935Z" fill="#CC6FFF"/>
<path d="M24.125 27.9681C24.1046 27.9127 24.0985 27.8436 24.0612 27.8042C23.9404 27.6768 23.806 27.5623 23.6817 27.4381C23.6546 27.411 23.6564 27.3548 23.6291 27.3282C23.5749 27.2752 23.5094 27.2338 23.4492 27.1869C23.4076 27.1544 23.3405 27.1272 23.3305 27.0863C23.2718 26.8488 23.0948 26.7374 22.8935 26.646C22.8801 26.6399 22.8699 26.6268 22.8589 26.6176C22.9459 26.3483 22.9326 26.3448 22.6763 26.1423C22.5837 26.0692 22.5322 25.9388 22.4749 25.8279C22.4266 25.7345 22.4004 25.6299 22.3575 25.5334C22.342 25.4984 22.3092 25.4504 22.2791 25.4462C22.1255 25.4251 22.1621 25.3494 22.1973 25.2472C22.2153 25.1953 22.187 25.1193 22.1591 25.0645C22.151 25.0484 22.0729 25.0678 22.0142 25.0718C21.9784 24.9606 21.9647 24.83 21.7963 24.7835C21.7472 24.7699 21.7285 24.5919 21.7235 24.488C21.7184 24.3831 21.6873 24.3172 21.5967 24.26C21.4825 24.188 21.4165 24.0848 21.4316 23.9328C21.4373 23.8758 21.38 23.8104 21.3457 23.7522C21.3203 23.7089 21.2874 23.6695 21.2548 23.6308C21.1811 23.5431 21.1019 23.4599 21.032 23.3693C20.968 23.2864 20.9118 23.1973 20.8551 23.1091C20.7532 22.9503 20.6528 22.7906 20.5533 22.6303C20.5322 22.5964 20.5036 22.5585 20.5031 22.5221C20.5017 22.4301 20.4798 22.3687 20.3725 22.3728C20.3535 22.3736 20.322 22.3657 20.3166 22.353C20.2585 22.218 20.2026 22.082 20.1503 21.9447C20.1286 21.8876 20.1357 21.799 20.0972 21.7729C19.9899 21.7005 20.0095 21.5862 19.9699 21.4922C19.9429 21.428 19.9009 21.3694 19.861 21.3115C19.7313 21.1229 19.5973 20.9372 19.4699 20.7471C19.4391 20.7011 19.4258 20.6429 19.4073 20.5894C19.399 20.5654 19.3998 20.5177 19.3924 20.5169C19.156 20.4909 19.2526 20.2322 19.1222 20.1302C19.0874 20.103 19.0689 20.0394 19.0651 19.9908C19.0485 19.7776 18.9566 19.6055 18.818 19.4452C18.7558 19.3732 18.7363 19.2646 18.6963 19.1732C18.6881 19.1543 18.6741 19.1218 18.6641 19.1224C18.4313 19.135 18.4985 18.8232 18.2986 18.7832C18.2588 18.7752 18.2474 18.6253 18.2257 18.5503C18.1202 18.4355 18.0084 18.3138 17.8807 18.1748C17.8652 18.1735 17.8139 18.1694 17.7311 18.1627C17.7816 18.0957 17.8104 18.0576 17.839 18.0197C17.7462 17.892 17.653 17.7657 17.5627 17.6374C17.5496 17.6188 17.5392 17.5855 17.547 17.5673C17.6162 17.4053 17.5141 17.2762 17.4222 17.1936C17.3158 17.0981 17.3529 17.045 17.4067 16.9636C17.4194 16.9446 17.4213 16.9184 17.4296 16.8905C17.4048 16.8861 17.3875 16.877 17.3764 16.8819C17.1949 16.9618 17.1526 16.9182 17.1125 16.7137C17.0929 16.6134 17.0042 16.5112 16.9198 16.4436C16.8418 16.3811 16.7763 16.3349 16.7794 16.2248C16.7821 16.1327 16.6917 16.0813 16.6615 16.0214C16.6017 15.9031 16.4627 15.8829 16.412 15.7377C16.3742 15.6297 16.3361 15.4057 16.1163 15.4005C16.083 15.3997 16.0416 15.3509 16.02 15.3146C15.9648 15.2217 15.9291 15.1155 15.8649 15.0301C15.828 14.981 15.7509 14.9621 15.7043 14.918C16.1104 14.9063 16.5041 14.9073 16.8978 14.9049C16.952 14.9046 17.0062 14.8876 17.0604 14.8783C17.2071 14.8655 17.3538 14.8527 17.5164 14.8507C17.5411 15.029 17.6326 15.1321 17.785 15.1896C17.9093 15.2364 17.9411 15.4803 18.142 15.3493C18.252 15.6023 18.3542 15.851 18.68 15.8958C18.6756 16.0459 18.6954 16.1892 18.8936 16.2022C18.9019 16.2028 18.9115 16.2134 18.917 16.2217C18.99 16.3315 19.0517 16.4509 19.137 16.55C19.327 16.7708 19.2635 17.0856 19.4367 17.3149C19.4937 17.3904 19.4703 17.5236 19.5218 17.6069C19.6525 17.8179 19.7616 18.0342 19.8142 18.2781C19.822 18.3143 19.8504 18.3496 19.8775 18.3773C20.0263 18.5299 20.1251 18.7323 20.1375 18.9213C20.1529 19.1544 20.3355 19.3016 20.3546 19.5208C20.3626 19.6127 20.4523 19.7013 20.4491 19.7894C20.444 19.9301 20.4446 20.0404 20.6081 20.0793C20.6225 20.0827 20.6297 20.1131 20.642 20.1297C20.7726 20.305 20.891 20.4918 21.0385 20.6516C21.155 20.7779 21.2928 20.8751 21.2341 21.0792C21.2269 21.1043 21.2747 21.1639 21.3095 21.1793C21.4478 21.2408 21.4667 21.3277 21.3948 21.4348C21.4727 21.5887 21.5401 21.7402 21.6248 21.8812C21.6673 21.9522 21.7315 22.0229 21.8034 22.0603C21.8974 22.1093 21.9471 22.1564 21.9776 22.2696C22.0194 22.4253 22.0348 22.6153 22.1956 22.7102C22.3808 22.8196 22.3998 23.0117 22.4621 23.1837C22.4756 23.221 22.4773 23.2626 22.4851 23.3062C22.6905 23.2965 22.684 23.4545 22.7189 23.5807C22.7351 23.6391 22.7426 23.7339 22.778 23.747C22.8956 23.7902 22.9097 23.8962 22.9604 23.9811C22.9922 24.0344 23.023 24.0903 23.0649 24.135C23.1995 24.2785 23.3423 24.4143 23.4754 24.5591C23.5723 24.6645 23.6561 24.7818 23.7516 24.8885C23.7764 24.9161 23.8236 24.9234 23.8598 24.9414C23.8723 24.9476 23.8829 24.9576 23.9001 24.9701C23.8711 25.0082 23.8454 25.0421 23.8474 25.0394C23.9149 25.15 23.9662 25.2345 24.0179 25.3188C24.059 25.3857 24.1005 25.4523 24.1419 25.519C24.2616 25.7521 24.3657 25.9956 24.4739 26.2372C24.5303 26.363 24.6042 26.4818 24.6512 26.6107C24.6903 26.7179 24.693 26.8406 24.8471 26.8527C24.866 26.8542 24.8975 26.886 24.8978 26.9042C24.9015 27.12 25.12 27.1736 25.2094 27.3233C25.2442 27.3815 25.3133 27.457 25.2979 27.4997C25.2647 27.5917 25.2027 27.7106 25.1234 27.7399C24.9998 27.7857 24.9132 27.8282 24.8916 27.9685C24.6263 27.9685 24.3756 27.9683 24.125 27.9681Z" fill="#E077FF"/>
<path d="M24.9064 27.9684C24.9134 27.8282 24.9999 27.7857 25.1236 27.7399C25.2029 27.7106 25.2648 27.5917 25.298 27.4997C25.3135 27.457 25.2444 27.3815 25.2096 27.3233C25.1202 27.1736 24.9016 27.1201 24.898 26.9042C24.8977 26.886 24.8662 26.8542 24.8473 26.8527C24.6932 26.8406 24.6905 26.7179 24.6513 26.6107C24.6043 26.4818 24.5304 26.363 24.4741 26.2372C24.3659 25.9956 24.2618 25.7521 24.142 25.519C24.1007 25.4523 24.0592 25.3857 24.0181 25.3189C23.9664 25.2346 23.915 25.15 23.8476 25.0395C23.8456 25.0421 23.8713 25.0083 23.9003 24.9701C23.883 24.9576 23.8725 24.9476 23.86 24.9414C23.8237 24.9235 23.7766 24.9162 23.7518 24.8885C23.6563 24.7818 23.5724 24.6645 23.4756 24.5591C23.3425 24.4143 23.1996 24.2786 23.0651 24.135C23.0232 24.0903 22.9924 24.0344 22.9606 23.9812C22.9098 23.8962 22.8957 23.7902 22.7782 23.747C22.7427 23.7339 22.7353 23.6391 22.7191 23.5807C22.6842 23.4545 22.6907 23.2965 22.4853 23.3062C22.4775 23.2626 22.4758 23.221 22.4623 23.1838C22.3999 23.0117 22.3809 22.8196 22.1957 22.7103C22.035 22.6154 22.0196 22.4254 21.9777 22.2696C21.9473 22.1564 21.8975 22.1093 21.8035 22.0603C21.7317 22.0229 21.6675 21.9522 21.6249 21.8812C21.5403 21.7402 21.4729 21.5887 21.3949 21.4348C21.4668 21.3278 21.448 21.2408 21.3097 21.1794C21.2749 21.1639 21.227 21.1044 21.2343 21.0792C21.293 20.8751 21.1552 20.7779 21.0387 20.6516C20.8911 20.4918 20.7728 20.3051 20.6422 20.1297C20.6299 20.1131 20.6227 20.0827 20.6083 20.0793C20.4447 20.0405 20.4441 19.9301 20.4493 19.7894C20.4525 19.7013 20.3627 19.6127 20.3547 19.5208C20.3357 19.3017 20.1531 19.1544 20.1377 18.9213C20.1252 18.7323 20.0265 18.5299 19.8776 18.3773C19.8506 18.3496 19.8221 18.3143 19.8144 18.2781C19.7618 18.0342 19.6526 17.8179 19.522 17.6069C19.4704 17.5237 19.4938 17.3904 19.4368 17.3149C19.2637 17.0856 19.3272 16.7708 19.1372 16.55C19.0519 16.4509 18.9902 16.3315 18.9172 16.2217C18.9117 16.2134 18.9021 16.2028 18.8938 16.2022C18.6955 16.1892 18.6757 16.0459 18.6802 15.8958C18.3544 15.851 18.2522 15.6023 18.1422 15.3493C17.9413 15.4803 17.9094 15.2365 17.7852 15.1896C17.6328 15.1321 17.5412 15.029 17.5303 14.8489C17.5946 14.8086 17.6599 14.7604 17.7275 14.757C18.0575 14.74 18.3225 14.5666 18.6152 14.4072C18.6403 14.3904 18.6477 14.3813 18.6551 14.3721C18.6551 14.3721 18.6555 14.3748 18.666 14.3743C18.7004 14.3523 18.7242 14.3308 18.748 14.3093C18.748 14.3093 18.7503 14.3112 18.7606 14.3113C18.7944 14.2885 18.8178 14.2656 18.8412 14.2427C18.8571 14.2261 18.873 14.2095 18.9077 14.1901C18.9512 14.1769 18.9758 14.1666 19.0124 14.1565C19.0872 14.154 19.1599 14.1709 19.2113 14.1452C19.4312 14.0354 19.6686 14.072 19.8255 14.2533C19.8798 14.316 19.9525 14.3699 19.9854 14.4421C20.0193 14.5167 20.0123 14.6092 20.0279 14.693C20.0782 14.963 20.108 14.9893 20.3605 14.9972C20.2532 15.1478 20.2535 15.1471 20.4442 15.2216C20.4653 15.2298 20.4954 15.2505 20.4971 15.2678C20.5113 15.4112 20.6277 15.4298 20.7293 15.4772C20.805 15.5124 20.874 15.5691 20.9347 15.6278C21.0257 15.7157 21.1367 15.8009 21.184 15.911C21.2357 16.0315 21.274 16.1245 21.3914 16.1082C21.4574 16.2233 21.5076 16.3229 21.5688 16.415C21.684 16.5884 21.8097 16.755 21.9209 16.9309C21.9414 16.9633 21.9141 17.0263 21.9083 17.0751C21.8984 17.1566 21.8881 17.2381 21.878 17.3196C21.8748 17.3288 21.8691 17.3358 21.8443 17.3431C21.8132 17.3566 21.7986 17.3677 21.784 17.3788C21.784 17.3788 21.7862 17.3789 21.775 17.3788C21.7392 17.4099 21.7146 17.4411 21.69 17.4722C21.69 17.4722 21.6874 17.4709 21.6791 17.4709C21.6564 17.4819 21.642 17.493 21.6277 17.504C21.6277 17.504 21.6297 17.5036 21.6185 17.5036C21.5826 17.5345 21.5579 17.5654 21.5332 17.5963C21.5332 17.5963 21.5313 17.5941 21.5228 17.5949C21.4999 17.6068 21.4855 17.6179 21.4712 17.629C21.4712 17.629 21.473 17.6275 21.4625 17.6282C21.4375 17.6496 21.423 17.6702 21.4085 17.6908C21.4085 17.6908 21.4061 17.6892 21.3977 17.6894C21.375 17.7006 21.3606 17.7116 21.3462 17.7226C21.3462 17.7226 21.3442 17.7215 21.3373 17.7248C21.3254 17.7383 21.3203 17.7484 21.3151 17.7586C21.3121 17.7675 21.3064 17.7741 21.2802 17.7803C21.238 17.8036 21.2138 17.8252 21.1896 17.8469C21.1896 17.8469 21.1874 17.8449 21.1769 17.8449C21.1433 17.8683 21.1202 17.8917 21.097 17.9151C21.0849 17.9236 21.0728 17.932 21.0431 17.9426C21.0176 17.955 21.0098 17.9652 21.0019 17.9754C20.9787 17.9927 20.9554 18.0101 20.9151 18.0327C20.8908 18.047 20.8834 18.056 20.876 18.065C20.876 18.065 20.8757 18.0626 20.8647 18.0631C20.8307 18.0872 20.8077 18.1108 20.7847 18.1345C20.7491 18.1705 20.7135 18.2065 20.6582 18.2475C20.5604 18.2915 20.5057 18.3405 20.5594 18.4362C20.4929 18.6323 20.555 18.8037 20.6675 18.9611C20.775 19.1115 20.89 19.2564 21.0054 19.4246C21.0279 19.4524 21.0467 19.4594 21.0655 19.4664C21.0655 19.4664 21.0634 19.469 21.0641 19.4773C21.0758 19.5001 21.0868 19.5145 21.0978 19.529C21.0978 19.529 21.0962 19.5272 21.097 19.5376C21.1183 19.5627 21.1389 19.5772 21.1594 19.5918C21.1594 19.5918 21.1574 19.5939 21.1579 19.6023C21.1695 19.6251 21.1805 19.6395 21.1916 19.6538C21.1916 19.6538 21.1903 19.6519 21.1909 19.6625C21.2122 19.6876 21.2328 19.7021 21.2534 19.7166C21.2534 19.7166 21.2516 19.7189 21.2519 19.7273C21.2632 19.75 21.2743 19.7644 21.2853 19.7787C21.2853 19.7787 21.2844 19.7767 21.2849 19.7874C21.306 19.8125 21.3267 19.827 21.3473 19.8415C21.3473 19.8415 21.3455 19.8439 21.3457 19.8522C21.357 19.8749 21.3681 19.8893 21.3792 19.9037C21.3792 19.9037 21.3786 19.9016 21.3785 19.9109C21.3934 19.936 21.4084 19.9518 21.4234 19.9675C21.9142 20.5976 22.4093 21.2245 22.8949 21.8586C23.6533 22.8487 24.406 23.8433 25.1599 24.8369C25.7755 25.6484 26.3908 26.4603 27.0031 27.2744C27.2089 27.5479 27.1585 27.8074 26.8524 27.9705C26.1861 27.9698 25.5462 27.9691 24.9064 27.9684Z" fill="#E478FF"/>
<path d="M13.8918 4.09419C13.9299 4.21405 13.9504 4.33433 13.9791 4.45263C13.9853 4.47814 14.0216 4.51583 14.0429 4.51512C14.2236 4.50916 14.229 4.65141 14.2791 4.76874C14.3702 4.98252 14.4845 5.17993 14.7309 5.25786C14.8576 5.29795 14.8874 5.41533 14.8885 5.53073C14.8905 5.75254 14.9483 5.94707 15.1437 6.07087C15.3256 6.18616 15.437 6.35674 15.5437 6.53396C15.5491 6.5428 15.5522 6.55295 15.5577 6.56168C15.6003 6.62966 15.4512 6.72523 15.5985 6.78641C15.6689 6.81567 15.7195 6.8926 15.7754 6.94455C15.7047 7.1194 15.7221 7.1412 15.8843 7.15927C15.9899 7.2744 16.0681 7.35827 16.1443 7.44392C16.1608 7.46243 16.1782 7.48626 16.1813 7.50948C16.2021 7.66707 16.2192 7.82515 16.2384 7.99147C16.3968 7.96085 16.4734 7.9847 16.4188 8.14383C16.4085 8.17392 16.4478 8.22337 16.4689 8.2613C16.4977 8.31308 16.5309 8.36237 16.5623 8.42422C15.5617 8.43656 14.5609 8.4374 13.5437 8.4262C13.4754 8.3557 13.4331 8.35089 13.4066 8.43552C13.3926 8.43641 13.3785 8.43729 13.354 8.43685C13.2975 8.41535 13.2518 8.37857 13.2054 8.37772C12.9138 8.37236 12.6217 8.3849 12.3308 8.3711C12.1695 8.36345 12.0076 8.32484 11.8514 8.28115C11.8086 8.26918 11.7556 8.18723 11.7577 8.13958C11.7659 7.95117 11.6914 7.85496 11.5123 7.82921C11.4731 7.82357 11.4067 7.7475 11.4139 7.71991C11.4614 7.53918 11.4321 7.41348 11.2398 7.33673C11.1945 7.31867 11.1848 7.21144 11.1589 7.14517C11.1486 7.11881 11.1387 7.09228 11.1169 7.03501C11.0807 7.0971 11.0599 7.1329 11.0367 7.17273C11.0258 7.1634 11.0073 7.15536 11.006 7.14506C11.0006 7.10396 11.0038 7.06167 10.9978 7.02072C10.9809 6.90655 11.0249 6.78371 10.8162 6.7593C10.684 6.74383 10.7988 6.63638 10.8684 6.59641C10.7645 6.49766 10.6726 6.40521 10.5751 6.31914C10.465 6.22193 10.3995 6.10902 10.4238 5.93842C10.36 5.95589 10.304 5.97122 10.282 5.97726C10.1915 5.85358 10.107 5.74375 10.0298 5.62903C10.0087 5.5977 9.99739 5.55014 10.0023 5.51274C10.018 5.39322 9.95867 5.34014 9.85216 5.31915C9.82181 5.31317 9.76526 5.30218 9.76568 5.29787C9.78488 5.10119 9.54915 5.04672 9.5306 4.87233C9.51788 4.75273 9.49056 4.65553 9.33142 4.64965C9.2151 4.64534 9.06973 4.45062 9.05209 4.31927C9.05075 4.30924 9.04893 4.29891 9.04511 4.28964C8.96467 4.09429 8.96461 4.09393 9.17496 4.09391C10.7424 4.09382 12.3097 4.09388 13.8918 4.09419ZM11.6187 7.66845C11.6186 7.6808 11.6185 7.69314 11.6183 7.70548C11.6235 7.70553 11.633 7.70592 11.6331 7.70557C11.634 7.69329 11.6341 7.68094 11.6187 7.66845Z" fill="#E876FF"/>
<path d="M24.3788 13.2066C24.2839 13.1801 24.2345 13.1197 24.2587 13.0119C24.2655 12.9817 24.2519 12.9454 24.2426 12.9133C24.2327 12.8788 24.1975 12.8386 24.2069 12.8135C24.27 12.6451 24.2411 12.5614 24.0408 12.6054C24.0327 12.6072 24.0122 12.5673 24.0027 12.5446C23.9712 12.4696 23.9583 12.3802 23.909 12.3206C23.7667 12.1483 23.7848 11.9242 23.7066 11.7351C23.524 11.7363 23.5138 11.7263 23.55 11.5567C23.5778 11.4265 23.4983 11.3027 23.4101 11.2994C23.221 11.2922 23.2255 11.1502 23.1644 11.047C23.1363 10.9995 23.1012 10.9457 23.0552 10.9209C22.8222 10.7952 22.5777 10.6924 22.5424 10.372C22.5353 10.3077 22.4202 10.2568 22.358 10.1966C22.3134 10.1534 22.2594 10.1116 22.2345 10.0577C22.1387 9.85014 21.9591 9.7179 21.8086 9.55896C21.7041 9.44861 21.621 9.32499 21.647 9.14653C21.5121 9.1619 21.453 9.08365 21.4344 8.95696C21.4304 8.9301 21.4089 8.89709 21.3857 8.88317C21.213 8.7794 21.1645 8.59219 21.0757 8.43204C21.0137 8.32033 20.9508 8.20913 20.8875 8.09813C20.8828 8.08976 20.8705 8.0778 20.8644 8.0792C20.6179 8.1359 20.6493 7.86495 20.5184 7.786C20.5145 7.78366 20.5142 7.77473 20.5104 7.77303C20.3302 7.69267 20.2638 7.53595 20.2188 7.35849C20.2118 7.331 20.1446 7.31062 20.1022 7.30172C19.9334 7.26634 19.864 7.15802 19.8601 6.99424C19.8596 6.97127 19.849 6.92956 19.8396 6.92858C19.6586 6.90943 19.6573 6.76285 19.64 6.62183C19.6066 6.63477 19.5881 6.64009 19.5714 6.64877C19.5334 6.66846 19.4813 6.716 19.462 6.70494C19.4235 6.68302 19.3818 6.63034 19.3795 6.58827C19.3706 6.4268 19.2967 6.37452 19.1374 6.32742C18.9919 6.2844 18.8755 6.13442 18.7535 6.02356C18.6592 5.9378 18.6415 5.78554 18.4953 5.73594C18.4619 5.72464 18.4398 5.632 18.441 5.57738C18.4432 5.46835 18.4083 5.40879 18.2939 5.40558C18.2173 5.40344 18.1707 5.36891 18.2023 5.28642C18.2477 5.16784 18.1819 5.11643 18.0846 5.09884C17.9455 5.07369 17.9218 4.99824 17.9519 4.87392C17.9916 4.71011 17.9256 4.6489 17.7477 4.68081C17.6848 4.47484 17.5161 4.36726 17.3428 4.26649C17.2782 4.22893 17.2228 4.1961 17.2785 4.10083C18.266 4.11286 19.2139 4.32728 20.1016 4.73113C21.7322 5.47296 22.9762 6.64473 23.7927 8.24986C24.177 9.00539 24.4144 9.80911 24.5276 10.6488C24.5477 10.7975 24.552 10.9484 24.5535 11.1212C24.5394 11.3549 24.5319 11.5657 24.5329 11.7763C24.5334 11.8713 24.5509 11.9662 24.5607 12.0611C24.5009 12.4388 24.4412 12.8165 24.3788 13.2066ZM22.3984 10.0611C22.3753 10.065 22.3522 10.0689 22.3291 10.0728C22.3315 10.0858 22.3339 10.0989 22.3363 10.1119C22.3581 10.1017 22.3798 10.0915 22.3984 10.0611Z" fill="#F77CFF"/>
<path d="M21.8857 17.3154C21.8881 17.2382 21.8984 17.1567 21.9082 17.0751C21.9141 17.0263 21.9414 16.9634 21.9208 16.9309C21.8097 16.755 21.684 16.5885 21.5688 16.4151C21.5075 16.3229 21.4574 16.2234 21.3913 16.1082C21.2739 16.1246 21.2357 16.0316 21.1839 15.911C21.1367 15.801 21.0256 15.7158 20.9347 15.6279C20.8739 15.5691 20.8049 15.5125 20.7292 15.4772C20.6277 15.4299 20.5112 15.4113 20.4971 15.2678C20.4954 15.2505 20.4653 15.2299 20.4442 15.2216C20.2535 15.1472 20.2532 15.1479 20.3604 14.9972C20.1079 14.9893 20.0781 14.963 20.0279 14.693C20.0123 14.6092 20.0193 14.5168 19.9854 14.4422C19.9525 14.3699 19.8798 14.3161 19.8255 14.2533C19.6686 14.0721 19.4311 14.0355 19.2112 14.1453C19.1599 14.171 19.0872 14.154 19.0117 14.1468C18.9984 14.1305 18.9977 14.124 18.9971 14.1175C19.4133 13.729 19.7449 13.2819 19.9384 12.7418C20.1017 12.2864 20.153 11.8219 20.1014 11.3356C20.0607 10.9521 19.9571 10.5945 19.8099 10.2319C19.8503 10.2405 19.8896 10.2693 19.9333 10.2795C20.0427 10.305 20.0682 10.3614 20.05 10.4727C20.0311 10.5885 20.0458 10.7098 20.0658 10.8454C20.1996 10.7073 20.24 10.7632 20.3234 10.8772C20.3724 10.9441 20.4356 11.1551 20.6295 11.0181C20.6604 10.9962 20.7955 11.0748 20.8448 11.1369C20.9203 11.232 20.9495 11.3644 21.1142 11.3522C21.1421 11.3501 21.1809 11.4083 21.2042 11.4453C21.2831 11.5698 21.3449 11.7073 21.4371 11.8204C21.5068 11.9058 21.5665 11.97 21.4949 12.0413C21.5976 12.1779 21.691 12.3019 21.7841 12.4261C21.7903 12.4342 21.7965 12.4515 21.8003 12.4508C21.96 12.4236 22.0268 12.5787 22.1469 12.6249C22.2315 12.6575 22.2736 12.7046 22.2417 12.787C22.1922 12.9145 22.233 12.9775 22.3652 12.9789C22.3568 13.0699 22.3499 13.1454 22.3412 13.2391C22.5633 13.2041 22.5691 13.4052 22.6456 13.5138C22.7145 13.6117 22.7708 13.6382 22.8726 13.5921C22.9637 13.7705 23.0412 13.9466 23.1424 14.1079C23.1821 14.1711 23.2738 14.203 23.344 14.2455C23.3922 14.2746 23.4427 14.3014 23.495 14.3217C23.5332 14.3366 23.5807 14.3552 23.6161 14.3449C23.8269 14.2832 23.8304 14.2833 23.8885 14.4756C23.8922 14.4878 23.9233 14.4917 23.9528 14.4999C23.7221 15.1136 23.3873 15.6737 22.9793 16.1894C22.8184 16.3927 22.6362 16.5792 22.4458 16.7815C22.4217 16.8003 22.4153 16.8109 22.409 16.8215C22.3853 16.8479 22.3615 16.8743 22.3206 16.9077C22.297 16.9253 22.2905 16.936 22.284 16.9467C22.2598 16.9729 22.2356 16.999 22.1945 17.0324C22.1714 17.0502 22.1652 17.0607 22.159 17.0712C22.1231 17.1077 22.0872 17.1442 22.0306 17.1845C21.987 17.2123 21.9641 17.2362 21.9412 17.2601C21.9253 17.2771 21.9093 17.2941 21.8857 17.3154Z" fill="#E876FF"/>
<path d="M9.71802 15.0457C9.71801 13.0255 9.71834 11.0199 9.71955 9.01433C9.71959 8.9529 9.72874 8.89147 9.74406 8.82202C9.75395 12.2984 9.75348 15.7827 9.75288 19.2671C9.7528 19.6889 9.75207 20.1108 9.74997 20.5472C9.73846 20.5022 9.72005 20.4428 9.72 20.3834C9.71838 18.609 9.71858 16.8347 9.71802 15.0457Z" fill="#CC6FFF"/>
<path d="M17.049 14.8724C17.0064 14.8876 16.9522 14.9046 16.898 14.9049C16.5043 14.9073 16.1106 14.9063 15.7023 14.9066C15.0008 14.9066 14.314 14.9067 13.6271 14.9058C13.5705 14.9057 13.5138 14.8986 13.448 14.8858C13.6044 14.8669 13.7699 14.8491 13.9355 14.8486C14.9136 14.8459 15.8917 14.847 16.8699 14.8481C16.9257 14.8481 16.9816 14.86 17.049 14.8724Z" fill="#CC6FFF"/>
<path d="M24.8916 27.9686C25.5461 27.9691 26.186 27.9698 26.8418 27.9714C26.7825 27.9847 26.7074 28.0073 26.6321 28.0077C26.1327 28.0102 25.6333 28.0085 25.1338 28.007C24.7863 28.006 24.4388 28.003 24.0774 27.9991C24.0779 27.988 24.0925 27.9788 24.116 27.9689C24.3757 27.9684 24.6263 27.9685 24.8916 27.9686Z" fill="#D571FF"/>
<path d="M24.5621 12.0466C24.5508 11.9662 24.5333 11.8713 24.5328 11.7763C24.5318 11.5656 24.5393 11.3549 24.5525 11.1351C24.5623 11.4281 24.5629 11.7301 24.5621 12.0466Z" fill="#E876FF"/>
<path d="M19.3423 9.54126C19.4923 9.5084 19.5548 9.57459 19.5294 9.7396C19.4674 9.68593 19.4064 9.61871 19.3423 9.54126Z" fill="#E876FF"/>
<path d="M19.6213 9.89051C19.7051 9.86409 19.7565 9.88373 19.7524 9.98591C19.7504 10.0345 19.77 10.084 19.7792 10.1461C19.7266 10.0732 19.6745 9.98733 19.6213 9.89051Z" fill="#E876FF"/>
<path d="M17.0674 8.45541C17.1902 8.45193 17.3233 8.45671 17.4616 8.47369C17.337 8.47848 17.2074 8.47107 17.0674 8.45541Z" fill="#DE74FF"/>
<path d="M20.5634 18.4265C20.5056 18.3405 20.5602 18.2915 20.6497 18.2521C20.6298 18.3067 20.5986 18.3617 20.5634 18.4265Z" fill="#DE74FF"/>
<path d="M13.4189 8.43688C13.433 8.35093 13.4753 8.35574 13.529 8.4248C13.4977 8.43633 13.4645 8.43727 13.4189 8.43688Z" fill="#DE74FF"/>
<path d="M21.6997 17.4696C21.7145 17.4411 21.7391 17.41 21.7749 17.38C21.7606 17.4098 21.7351 17.4384 21.6997 17.4696Z" fill="#DE74FF"/>
<path d="M21.5422 17.5923C21.5578 17.5655 21.5826 17.5346 21.6185 17.5046C21.6035 17.5332 21.5775 17.5607 21.5422 17.5923Z" fill="#DE74FF"/>
<path d="M21.9504 17.2562C21.9641 17.2361 21.987 17.2122 22.0218 17.1884C22.009 17.2098 21.9843 17.2311 21.9504 17.2562Z" fill="#DE74FF"/>
<path d="M20.7937 18.1306C20.8076 18.1108 20.8307 18.0871 20.8655 18.0638C20.8525 18.085 20.8277 18.1058 20.7937 18.1306Z" fill="#DE74FF"/>
<path d="M21.1062 17.9115C21.1202 17.8917 21.1433 17.8683 21.1783 17.8453C21.1652 17.8665 21.1403 17.8872 21.1062 17.9115Z" fill="#DE74FF"/>
<path d="M21.1992 17.8447C21.2138 17.8252 21.238 17.8036 21.2738 17.7823C21.2599 17.8027 21.2344 17.8227 21.1992 17.8447Z" fill="#DE74FF"/>
<path d="M18.9879 14.1211C18.9977 14.124 18.9983 14.1304 18.9996 14.1466C18.9757 14.1666 18.9511 14.1769 18.9158 14.1871C18.9296 14.1663 18.9542 14.1455 18.9879 14.1211Z" fill="#DE74FF"/>
<path d="M18.8317 14.246C18.8176 14.2656 18.7942 14.2885 18.759 14.3109C18.7723 14.29 18.7974 14.2696 18.8317 14.246Z" fill="#DE74FF"/>
<path d="M18.7384 14.3115C18.7241 14.3309 18.7003 14.3524 18.665 14.3734C18.6787 14.3532 18.7038 14.3334 18.7384 14.3115Z" fill="#DE74FF"/>
<path d="M21.157 19.5825C21.1388 19.5772 21.1183 19.5627 21.0981 19.5374C21.1172 19.5421 21.1359 19.5577 21.157 19.5825Z" fill="#DE74FF"/>
<path d="M21.3448 19.8322C21.3265 19.8271 21.3059 19.8126 21.2859 19.7874C21.3051 19.792 21.3238 19.8074 21.3448 19.8322Z" fill="#DE74FF"/>
<path d="M16.8125 8.40588C16.8296 8.41088 16.8466 8.41587 16.8688 8.42828C16.841 8.43649 16.808 8.43727 16.7628 8.43682C16.7505 8.43559 16.7502 8.42093 16.7607 8.41362C16.7849 8.40616 16.7987 8.40602 16.8125 8.40588Z" fill="#DE74FF"/>
<path d="M21.4177 17.6884C21.4229 17.6702 21.4374 17.6496 21.4626 17.6294C21.4579 17.6486 21.4425 17.6673 21.4177 17.6884Z" fill="#DE74FF"/>
<path d="M21.4237 19.9585C21.4082 19.9518 21.3932 19.936 21.3794 19.9109C21.3951 19.9175 21.4096 19.9335 21.4237 19.9585Z" fill="#DE74FF"/>
<path d="M21.251 19.7073C21.2328 19.7021 21.2122 19.6876 21.1921 19.6624C21.2113 19.6671 21.23 19.6825 21.251 19.7073Z" fill="#DE74FF"/>
<path d="M21.1919 19.6443C21.1804 19.6395 21.1693 19.6251 21.1582 19.601C21.1695 19.6057 21.1809 19.6202 21.1919 19.6443Z" fill="#DE74FF"/>
<path d="M21.0979 19.5194C21.0867 19.5145 21.0757 19.5001 21.0647 19.4758C21.0759 19.4806 21.087 19.4952 21.0979 19.5194Z" fill="#DE74FF"/>
<path d="M21.0611 19.4575C21.0467 19.4594 21.0279 19.4524 21.0059 19.4352C21.0207 19.4329 21.0387 19.4407 21.0611 19.4575Z" fill="#DE74FF"/>
<path d="M21.3798 19.8941C21.368 19.8894 21.357 19.875 21.3459 19.8508C21.3575 19.8555 21.369 19.87 21.3798 19.8941Z" fill="#DE74FF"/>
<path d="M21.286 19.7691C21.2743 19.7644 21.2633 19.75 21.2522 19.7258C21.2637 19.7305 21.2751 19.745 21.286 19.7691Z" fill="#DE74FF"/>
<path d="M21.3557 17.7228C21.3606 17.7116 21.375 17.7006 21.3992 17.6896C21.3944 17.7007 21.3798 17.7119 21.3557 17.7228Z" fill="#DE74FF"/>
<path d="M21.4807 17.6293C21.4855 17.6179 21.4998 17.6068 21.524 17.5957C21.5193 17.6069 21.5048 17.6182 21.4807 17.6293Z" fill="#DE74FF"/>
<path d="M21.6372 17.5048C21.642 17.493 21.6563 17.4819 21.6804 17.4709C21.6758 17.4825 21.6613 17.494 21.6372 17.5048Z" fill="#DE74FF"/>
<path d="M21.7935 17.3797C21.7984 17.3677 21.813 17.3566 21.8376 17.3453C21.8327 17.357 21.8179 17.3688 21.7935 17.3797Z" fill="#DE74FF"/>
<path d="M19.7783 10.1671C19.7885 10.1723 19.7994 10.187 19.8102 10.2116C19.7998 10.2065 19.7894 10.1915 19.7783 10.1671Z" fill="#E876FF"/>
<path d="M20.8844 18.0624C20.8834 18.0561 20.8908 18.0471 20.9069 18.036C20.908 18.0425 20.9003 18.0511 20.8844 18.0624Z" fill="#DE74FF"/>
<path d="M21.0103 17.9713C21.0097 17.9652 21.0175 17.955 21.0353 17.9426C21.0364 17.9494 21.0276 17.9583 21.0103 17.9713Z" fill="#DE74FF"/>
<path d="M21.323 17.7546C21.3202 17.7484 21.3253 17.7383 21.3384 17.7244C21.3411 17.7306 21.336 17.7406 21.323 17.7546Z" fill="#DE74FF"/>
<path d="M22.1664 17.0665C22.1651 17.0607 22.1713 17.0502 22.1865 17.0366C22.1883 17.043 22.1811 17.0523 22.1664 17.0665Z" fill="#DE74FF"/>
<path d="M22.2917 16.9419C22.2904 16.936 22.2969 16.9253 22.3126 16.9117C22.3144 16.9183 22.3069 16.9277 22.2917 16.9419Z" fill="#DE74FF"/>
<path d="M22.4167 16.8168C22.4153 16.8109 22.4217 16.8003 22.4372 16.7867C22.439 16.7932 22.4317 16.8027 22.4167 16.8168Z" fill="#DE74FF"/>
<path d="M18.6465 14.3748C18.6476 14.3813 18.6402 14.3904 18.6239 14.4016C18.6227 14.3949 18.6304 14.3861 18.6465 14.3748Z" fill="#DE74FF"/>
<path d="M19.531 9.76015C19.5375 9.75964 19.5467 9.768 19.5575 9.78594C19.5507 9.78669 19.5422 9.77786 19.531 9.76015Z" fill="#E876FF"/>
<path d="M19.5923 9.85295C19.5982 9.85089 19.6075 9.85661 19.62 9.87004C19.6141 9.87208 19.6049 9.86641 19.5923 9.85295Z" fill="#E876FF"/>
<path d="M16.8114 8.3966C16.7988 8.40604 16.785 8.40618 16.7608 8.40631C16.7576 8.39008 16.7647 8.37387 16.7719 8.35767C16.7846 8.36754 16.7974 8.37742 16.8114 8.3966Z" fill="#E876FF"/>
<path d="M6.00537 18.9403C6.02996 18.9177 6.05294 18.9057 6.07591 18.8936C6.07638 18.9165 6.07684 18.9395 6.07731 18.9625C6.05279 18.9585 6.02828 18.9546 6.00537 18.9403Z" fill="#D571FF"/>
<path d="M6.60967 19.3855C6.59266 19.3747 6.58246 19.3572 6.57227 19.3397C6.58099 19.3357 6.58971 19.3317 6.59843 19.3278C6.60445 19.3448 6.61046 19.3618 6.60967 19.3855Z" fill="#D571FF"/>
<path d="M9.2513 22.7936C9.25888 22.806 9.25883 22.8183 9.25788 22.8306C9.25785 22.831 9.24828 22.8306 9.24316 22.8305C9.24329 22.8182 9.24342 22.8059 9.2513 22.7936Z" fill="#D571FF"/>
<path d="M11.6263 7.66858C11.6339 7.68099 11.6338 7.69334 11.6329 7.70563C11.6329 7.70597 11.6233 7.70558 11.6182 7.70553C11.6183 7.69319 11.6184 7.68085 11.6263 7.66858Z" fill="#DE74FF"/>
<path d="M22.4 10.0712C22.3798 10.0916 22.3581 10.1018 22.3363 10.1119C22.3339 10.0989 22.3315 10.0859 22.3291 10.0729C22.3522 10.0689 22.3753 10.065 22.4 10.0712Z" fill="#F17AFF"/>
</g>
<defs>
<clipPath id="clip0_20_6573">
<rect width="32" height="32" fill="white"/>
</clipPath>
</defs>
</svg>
